<?xml version="1.0" encoding="UTF-8"?>
<svg width="336px" height="336px" viewBox="0 0 336 336" version="1.1" xmlns="http://www.w3.org/2000/svg" xmlns:xlink="http://www.w3.org/1999/xlink">
    <title>全数据监控</title>
    <defs>
        <linearGradient x1="50%" y1="0%" x2="50%" y2="100%" id="linearGradient-1">
            <stop stop-color="#92B7FF" offset="0%"></stop>
            <stop stop-color="#ECE1F7" stop-opacity="0" offset="100%"></stop>
        </linearGradient>
    </defs>
    <g id="币印与VOS团队达成战略合作" stroke="none" stroke-width="1" fill="none" fill-rule="evenodd">
        <g id="OVS系统介绍-动效说明" transform="translate(-967.000000, -1892.000000)">
            <g id="全数据监控" transform="translate(967.000000, 1892.000000)">
                <rect id="矩形备份-27" fill-opacity="0" fill="#D8D8D8" fill-rule="nonzero" x="0" y="0" width="336" height="336"></rect>
                <g id="img_yinliuillustration" transform="translate(23.219512, 23.219512)">
                    <rect id="矩形备份-15" fill-opacity="0" fill="#D8D8D8" fill-rule="nonzero" x="0" y="0" width="289.560976" height="289.560976"></rect>
                    <g id="编组-18" transform="translate(1.365854, 5.463415)">
                        <circle id="椭圆形" fill="#E1E8F1" fill-rule="nonzero" opacity="0.400000006" cx="154.341463" cy="135.219512" r="132.487805"></circle>
                        <g id="编组-16">
                            <path d="M272.576124,230.830907 L41.5698087,230.830907 C36.7150606,230.830907 32.7802829,225.588917 32.7802829,219.125681 L32.7802829,45.8532073 C32.7802829,39.3880204 36.7150606,34.1479805 41.5698087,34.1479805 L272.576124,34.1479805 C277.430872,34.1479805 281.365649,39.3880204 281.365649,45.8532073 L281.365649,219.125681 C281.365649,225.588917 277.430872,230.830907 272.576124,230.830907" id="Fill-13" fill="#CED7E2" fill-rule="nonzero"></path>
                            <path d="M245.304544,240.390244 L68.8413875,240.390244 C65.1328993,240.390244 62.1271664,236.385945 62.1271664,231.448751 L62.1271664,99.0878341 C62.1271664,94.1491498 65.1328993,90.1463415 68.8413875,90.1463415 L245.304544,90.1463415 C249.013032,90.1463415 252.018765,94.1491498 252.018765,99.0878341 L252.018765,231.448751 C252.018765,236.385945 249.013032,240.390244 245.304544,240.390244" id="Fill-13" fill="#CED7E2" fill-rule="nonzero"></path>
                            <path d="M264.960531,221.269932 L49.1854014,221.269932 C44.6507466,221.269932 40.9754049,216.537579 40.9754049,210.702713 L40.9754049,54.2761748 C40.9754049,48.4395476 44.6507466,43.7089561 49.1854014,43.7089561 L264.960531,43.7089561 C269.495185,43.7089561 273.170527,48.4395476 273.170527,54.2761748 L273.170527,210.702713 C273.170527,216.537579 269.495185,221.269932 264.960531,221.269932" id="Fill-13" fill="#FCFFFF" fill-rule="nonzero"></path>
                            <path d="M247.336088,63.0726634 L229.487112,63.0726634 C226.469941,63.0726634 224.023698,60.6277854 224.023698,57.6092488 L224.023698,39.761639 C224.023698,36.7444683 226.469941,34.2982244 229.487112,34.2982244 L247.336088,34.2982244 C250.353259,34.2982244 252.799502,36.7444683 252.799502,39.761639 L252.799502,57.6092488 C252.799502,60.6277854 250.353259,63.0726634 247.336088,63.0726634" id="Fill-27" fill="#2DC8CE" fill-rule="nonzero"></path>
                            <path d="M245.189585,66.2896585 L231.633615,66.2896585 C229.34213,66.2896585 227.484252,64.4328185 227.484252,62.1402954 L227.484252,48.5853632 C227.484252,46.2938773 229.34213,44.436 231.633615,44.436 L245.189585,44.436 C247.48107,44.436 249.338948,46.2938773 249.338948,48.5853632 L249.338948,62.1402954 C249.338948,64.4328185 247.48107,66.2896585 245.189585,66.2896585" id="Fill-27" fill="#2DC8CE" fill-rule="nonzero" opacity="0.300000012"></path>
                            <path d="M239.343795,43.6707122 L242.453844,45.5542244 L240.025356,48.9388098 L234.87199,47.2902244 L227.736771,54.3312 C227.198624,54.8611512 227.194527,55.7257366 227.724478,56.2625171 L227.724478,56.2625171 C227.99082,56.5329561 228.34321,56.6695415 228.696966,56.6695415 L228.696966,56.6695415 C229.042527,56.6695415 229.389454,56.5384195 229.657161,56.2761756 L229.657161,56.2761756 L235.613649,50.3948098 L241.086624,52.1444683 L244.796283,46.9733463 L247.753356,48.7653463 L246.891502,40.7013463 L239.343795,43.6707122 Z" id="Fill-29" fill="#FCFFFF" fill-rule="nonzero"></path>
                            <path d="M255.163795,24.4392195 L254.057454,21.4466341 C252.66838,17.6823415 249.701746,14.7157073 245.93882,13.3252683 L242.944868,12.2202927 L245.93882,11.1139512 C249.701746,9.72487805 252.66838,6.7582439 254.057454,2.99531707 L255.163795,1.94099479e-14 L256.270137,2.99531707 C257.65921,6.7582439 260.625844,9.72487805 264.388771,11.1139512 L267.382722,12.2202927 L264.388771,13.3252683 C260.625844,14.7157073 257.65921,17.6823415 256.270137,21.4466341 L255.163795,24.4392195 Z" id="Fill-31" fill="#B5E0FC" fill-rule="nonzero"></path>
                            <path d="M91.7435024,268.021327 C91.7435024,274.104839 86.8127707,279.035571 80.7292585,279.035571 C74.6457463,279.035571 69.7150146,274.104839 69.7150146,268.021327 C69.7150146,261.93918 74.6457463,257.008449 80.7292585,257.008449 C86.8127707,257.008449 91.7435024,261.93918 91.7435024,268.021327 Z" id="Stroke-33" stroke="#B5E0FC" stroke-width="2.73170732"></path>
                            <rect id="矩形" fill="#E3EBF3" fill-rule="nonzero" x="55.9997951" y="166.635785" width="5.46341463" height="39.6097561" rx="2.73170732"></rect>
                            <rect id="矩形备份-10" fill="#E3EBF3" fill-rule="nonzero" x="244.4876" y="91.5138341" width="5.46341463" height="114.731707" rx="2.73170732"></rect>
                            <rect id="矩形备份-11" fill="#E3EBF3" fill-rule="nonzero" x="223.999795" y="117.465054" width="5.46341463" height="88.7804878" rx="2.73170732"></rect>
                            <rect id="矩形备份-23" fill="#E3EBF3" fill-rule="nonzero" x="202.146137" y="109.269932" width="5.46341463" height="96.9756098" rx="2.73170732"></rect>
                            <rect id="矩形备份-18" fill="#E3EBF3" fill-rule="nonzero" x="181.658332" y="132.489444" width="5.46341463" height="73.7560976" rx="2.73170732"></rect>
                            <rect id="矩形备份-19" fill="#E3EBF3" fill-rule="nonzero" x="161.170527" y="125.660176" width="5.46341463" height="80.5853659" rx="2.73170732"></rect>
                            <rect id="矩形备份-20" fill="#E3EBF3" fill-rule="nonzero" x="139.316868" y="150.245541" width="5.46341463" height="56" rx="2.73170732"></rect>
                            <rect id="矩形备份-21" fill="#E3EBF3" fill-rule="nonzero" x="118.829063" y="139.318712" width="5.46341463" height="66.9268293" rx="2.73170732"></rect>
                            <rect id="矩形备份-22" fill="#E3EBF3" fill-rule="nonzero" x="98.3412585" y="161.172371" width="5.46341463" height="45.0731707" rx="2.73170732"></rect>
                            <rect id="矩形备份-24" fill="#E3EBF3" fill-rule="nonzero" x="76.4876" y="154.343102" width="5.46341463" height="51.902439" rx="2.73170732"></rect>
                            <polygon id="路径-12" fill="url(#linearGradient-1)" fill-rule="nonzero" points="55.9997951 172.782127 79.2193073 159.806517 101.072966 166.635785 121.560771 144.782127 142.048576 155.708956 163.902234 131.12359 184.390039 137.952859 204.877844 114.733346 226.731502 122.928468 249.951015 93.1182124 249.951015 206.245541 55.9997951 206.245541"></polygon>
                            <circle id="椭圆形" fill="#1B68FF" fill-rule="nonzero" cx="58.7315024" cy="172.0992" r="5.46341463"></circle>
                            <circle id="椭圆形备份-104" fill="#1B68FF" fill-rule="nonzero" cx="79.2193073" cy="159.806517" r="5.46341463"></circle>
                            <circle id="椭圆形备份-105" fill="#1B68FF" fill-rule="nonzero" cx="101.072966" cy="166.635785" r="5.46341463"></circle>
                            <circle id="椭圆形备份-106" fill="#1B68FF" fill-rule="nonzero" cx="121.560771" cy="144.782127" r="5.46341463"></circle>
                            <circle id="椭圆形备份-107" fill="#1B68FF" fill-rule="nonzero" cx="142.048576" cy="155.708956" r="5.46341463"></circle>
                            <circle id="椭圆形备份-108" fill="#1B68FF" fill-rule="nonzero" cx="163.902234" cy="131.12359" r="5.46341463"></circle>
                            <circle id="椭圆形备份-109" fill="#1B68FF" fill-rule="nonzero" cx="184.390039" cy="137.952859" r="5.46341463"></circle>
                            <circle id="椭圆形备份-110" fill="#1B68FF" fill-rule="nonzero" cx="204.877844" cy="114.733346" r="5.46341463"></circle>
                            <circle id="椭圆形备份-111" fill="#1B68FF" fill-rule="nonzero" cx="226.731502" cy="122.928468" r="5.46341463"></circle>
                            <circle id="椭圆形备份-112" fill="#1B68FF" fill-rule="nonzero" cx="247.219307" cy="96.9772488" r="5.46341463"></circle>
                            <polyline id="路径-12" stroke="#1B68FF" stroke-width="2.73170732" points="58.7315024 172.782127 79.2193073 159.806517 101.072966 166.635785 121.560771 144.782127 142.048576 155.708956 163.902234 131.12359 184.390039 137.952859 204.877844 114.733346 226.731502 122.928468 247.219307 96.9772488"></polyline>
                            <path d="M13.2422927,144.114088 L7.78707317,149.569307 C7.25302439,150.103356 6.38843902,150.103356 5.8557561,149.569307 L0.400536585,144.114088 C-0.133512195,143.581405 -0.133512195,142.71682 0.400536585,142.182771 L5.8557561,136.727551 C6.38843902,136.193502 7.25302439,136.193502 7.78707317,136.727551 L13.2422927,142.182771 C13.7749756,142.71682 13.7749756,143.581405 13.2422927,144.114088" id="Fill-9" fill="#BBD9FA" fill-rule="nonzero"></path>
                            <path d="M35.0559317,174.503102 L24.4855902,185.072078 C23.9529073,185.606127 23.0869561,185.606127 22.5542732,185.072078 L11.9839317,174.503102 C11.4498829,173.969054 11.4498829,173.104468 11.9839317,172.57042 L22.5542732,162.001444 C23.0869561,161.467395 23.9529073,161.467395 24.4855902,162.001444 L35.0559317,172.57042 C35.5886146,173.104468 35.5886146,173.969054 35.0559317,174.503102" id="Fill-11" fill="#FFBBD8" fill-rule="nonzero"></path>
                        </g>
                        <circle id="椭圆形" stroke="#E6EDF5" stroke-width="5.46341463" cx="71.7073171" cy="75.804878" r="11.6097561"></circle>
                        <circle id="椭圆形备份-113" stroke="#E6EDF5" stroke-width="5.46341463" cx="111.317073" cy="75.804878" r="11.6097561"></circle>
                        <circle id="椭圆形备份-114" stroke="#E6EDF5" stroke-width="5.46341463" cx="150.926829" cy="75.804878" r="11.6097561"></circle>
                        <path d="M158.044317,66.632073 C156.078646,65.1046371 153.608952,64.195122 150.926829,64.195122 C144.514939,64.195122 139.317073,69.3929868 139.317073,75.804878 C139.317073,82.2167693 144.514939,87.4146341 150.926829,87.4146341 C157.33872,87.4146341 162.536585,82.2167693 162.536585,75.804878" id="路径" stroke="#1A66FF" stroke-width="5.46341463" stroke-linecap="round"></path>
                        <path d="M75.6592487,64.9721527 C74.3801273,64.4703087 72.9898649,64.195122 71.5362761,64.195122 C65.2188483,64.195122 60.097561,69.3929868 60.097561,75.804878 C60.097561,82.2167693 65.2188483,87.4146341 71.5362761,87.4146341 C76.1641999,87.4146341 80.1502138,84.6251957 81.9512195,80.6124908" id="路径" stroke="#1A66FF" stroke-width="5.46341463" stroke-linecap="round"></path>
                        <path d="M99.7073171,75.804878 C99.7073171,82.2167693 104.828604,87.4146341 111.146032,87.4146341 C113.499712,87.4146341 115.687359,86.6931293 117.50598,85.456146" id="路径" stroke="#1A66FF" stroke-width="5.46341463" stroke-linecap="round"></path>
                    </g>
                </g>
            </g>
        </g>
    </g>
</svg>