<?xml version="1.0" encoding="utf-8"?>
<!-- Generator: Adobe Illustrator 24.1.0, SVG Export Plug-In . SVG Version: 6.00 Build 0)  -->
<svg width="358px" height="358px" version="1.1" id="图层_1" xmlns="http://www.w3.org/2000/svg" xmlns:xlink="http://www.w3.org/1999/xlink" x="0px" y="0px"
	 viewBox="0 0 358 358" style="enable-background:new 0 0 358 358;" xml:space="preserve">
<style type="text/css">
	.st0{fill:#D8D8D8;fill-opacity:0;}
	.st1{fill:#BBD9FA;}
	.st2{fill:#FFBBD8;}
	.st3{fill:#C4D8FC;}
	.st4{opacity:0.2517;fill:#33C8CD;enable-background:new    ;}
	.st5{fill:#CED7E2;}
	.st6{fill:#FCFFFF;}
	.st7{fill:#E5EDF5;}
	.st8{fill:#34C8CD;}
	.st9{fill:#34C8CD;fill-opacity:0.3;}
	.st10{fill:#1A66FF;fill-opacity:0.3;}
	.st11{fill:#1A66FF;}
	.st12{fill:#34C8CD;fill-opacity:0.31;}
	.st13{fill:#FFFFFF;}
</style>
<g id="币印与VOS团队达成战略合作">
	<g id="OVS系统介绍" transform="translate(-353.000000, -1463.000000)">
		<g id="易操作性" transform="translate(353.000000, 1463.000000)">
			<rect id="矩形" y="0" class="st0" width="358" height="358"/>
			<g id="编组-9" transform="translate(32.731429, 27.617143)">
				<path id="Fill-9" class="st1" d="M239.9,289l-5.9,5.9c-0.6,0.6-1.5,0.6-2.1,0l-5.9-5.9c-0.6-0.6-0.6-1.5,0-2.1l5.9-5.9
					c0.6-0.6,1.5-0.6,2.1,0l5.9,5.9C240.5,287.5,240.5,288.4,239.9,289"/>
				<path id="Fill-11" class="st2" d="M25.2,91.7l-11.3,11.4c-0.6,0.6-1.5,0.6-2.1,0L0.4,91.7c-0.6-0.6-0.6-1.5,0-2.1l11.3-11.4
					c0.6-0.6,1.5-0.6,2.1,0l11.3,11.4C25.8,90.2,25.8,91.2,25.2,91.7"/>
				<path id="矩形_1_" class="st3" d="M255.7,238.9l10.5-10.5c1.1-1.1,2.9-1.1,4.1,0c0,0,0,0,0,0l10.5,10.5c1.1,1.1,1.1,2.9,0,4
					l-10.5,10.5c-1.1,1.1-2.9,1.1-4.1,0c0,0,0,0,0,0L255.7,243C254.6,241.9,254.6,240.1,255.7,238.9z"/>
				<path id="矩形_2_" class="st4" d="M8.2,27.4l25-25c1.1-1.1,2.9-1.1,4.1,0c0,0,0,0,0,0l25,25c1.1,1.1,1.1,2.9,0,4l-25,25
					c-1.1,1.1-2.9,1.1-4.1,0c0,0,0,0,0,0l-25-25C7.1,30.3,7.1,28.5,8.2,27.4z"/>
			</g>
			<g id="编组" transform="translate(48.074286, 70.371429)">
				<g id="编组-5" transform="translate(22.510892, 0.223570)">
					<path id="Fill-13" class="st5" d="M219.8,180.3H8.1c-4.5,0-8.1-4.8-8.1-10.7V10.7C0,4.8,3.6,0,8.1,0h211.8
						c4.5,0,8.1,4.8,8.1,10.7v158.8C227.9,175.5,224.3,180.3,219.8,180.3"/>
					<path id="Fill-13_1_" class="st6" d="M212.8,171.5H15c-4.2,0-7.5-4.3-7.5-9.7V18.5c0-5.4,3.4-9.7,7.5-9.7h197.8
						c4.2,0,7.5,4.3,7.5,9.7v143.4C220.4,167.2,217,171.5,212.8,171.5"/>
				</g>
				<g id="编组-6" transform="translate(105.393806, 31.279885)">
					<path id="Fill-9_1_" class="st7" d="M115.6,0H4.2C1.9,0,0,1.9,0,4.2s1.9,4.2,4.2,4.2h111.3c2.3,0,4.2-1.9,4.2-4.2
						S117.9,0,115.6,0"/>
					<path id="Fill-11_1_" class="st7" d="M115.6,25.4H4.2c-2.3,0-4.2-1.9-4.2-4.2s1.9-4.2,4.2-4.2h111.3c2.3,0,4.2,1.9,4.2,4.2
						S117.9,25.4,115.6,25.4"/>
					<path id="Fill-13_2_" class="st7" d="M115.6,73.3H4.2C1.9,73.3,0,71.4,0,69V38c0-2.3,1.9-4.2,4.2-4.2h111.3
						c2.3,0,4.2,1.9,4.2,4.2v31C119.8,71.4,117.9,73.3,115.6,73.3"/>
					<path id="Fill-15" class="st7" d="M115.6,84.5H4.2c-2.3,0-4.2,1.9-4.2,4.2S1.9,93,4.2,93h111.3c2.3,0,4.2-1.9,4.2-4.2
						S117.9,84.5,115.6,84.5"/>
					<path id="Fill-17" class="st7" d="M115.6,101.4H4.2c-2.3,0-4.2,1.9-4.2,4.2s1.9,4.2,4.2,4.2h111.3c2.3,0,4.2-1.9,4.2-4.2
						S117.9,101.4,115.6,101.4"/>
				</g>
				<path id="Fill-21" class="st8" d="M186,213.9H86c-5.4,0-9.9-4.4-9.9-9.9c0-5.4,4.4-9.9,9.9-9.9H186c5.4,0,9.9,4.4,9.9,9.9
					C195.9,209.5,191.5,213.9,186,213.9"/>
				<path id="Fill-21_1_" class="st9" d="M176.6,217.7H95.4c-4.4,0-8-3.6-8-8c0-4.4,3.6-8,8-8h81.2c4.4,0,8,3.6,8,8
					C184.6,214.1,181,217.7,176.6,217.7"/>
				<g id="Fill-23" transform="translate(0.000000, 115.258093)">
					<path id="路径" class="st10" d="M87.1,62.7c2.7,1.4,4.5,4.2,4.5,7.3v15.4c0,24.9-15.8,46-37.7,53.8c-0.2,0.1-0.5,0.1-0.7,0
						c-22-7.7-37.7-28.9-37.7-53.8V69.6c0-3.1,1.7-5.9,4.4-7.3l0.5-0.2l30.5-15.3c1.4-0.7,3-0.7,4.4,0l31.6,15.9L87.1,62.7z"/>
					<path id="路径_1_" class="st11" d="M100.8,23.6c3.8,1.9,6.3,5.8,6.3,10.1V55c0,34.5-22.2,63.9-53.1,74.6
						c-0.3,0.1-0.7,0.1-1,0C22.2,118.8,0,89.5,0,55V33c0-4.3,2.4-8.2,6.3-10.1l0.7-0.3L49.8,1.4c2-1,4.3-1,6.3,0l44.5,22L100.8,23.6
						z"/>
				</g>
				<path id="Fill-49" class="st12" d="M245.2,130.8c0,16.3-13.3,29.6-29.6,29.6S186,147.1,186,130.8c0-16.3,13.3-29.6,29.6-29.6
					S245.2,114.4,245.2,130.8"/>
				<path id="Fill-49_1_" class="st8" d="M248,118.1c0,17.9-14.5,32.4-32.4,32.4s-32.4-14.5-32.4-32.4s14.5-32.4,32.4-32.4
					S248,100.2,248,118.1"/>
				<path id="Fill-51" class="st13" d="M219,124c-0.5,0.3-1.1,0.5-1.6,0.7c-0.6,0.1-1.1,0.2-1.8,0.2c-0.6,0-1.2-0.1-1.8-0.2
					c-0.6-0.2-1.1-0.4-1.6-0.7c-1-0.6-1.9-1.5-2.5-2.5c-0.3-0.5-0.5-1.1-0.7-1.6c-0.1-0.6-0.2-1.1-0.2-1.8c0-0.6,0.1-1.2,0.2-1.8
					c0.2-0.6,0.4-1.1,0.7-1.6c0.6-1,1.5-1.9,2.5-2.5c0.5-0.3,1.1-0.5,1.6-0.7c0.6-0.1,1.1-0.2,1.8-0.2c0.6,0,1.2,0.1,1.8,0.2
					c0.6,0.2,1.1,0.4,1.6,0.7c1,0.6,1.9,1.5,2.5,2.5c0.3,0.5,0.5,1.1,0.7,1.6c0.1,0.6,0.2,1.1,0.2,1.8c0,0.6-0.1,1.2-0.2,1.8
					c-0.2,0.6-0.4,1.1-0.7,1.6C220.9,122.5,220,123.4,219,124L219,124z M233.9,120.6v-5.1l-5.2-0.8c-0.3-1.3-0.8-2.5-1.5-3.6
					l3.1-4.2l-3.6-3.6l-4.2,3.1c-1.1-0.7-2.3-1.2-3.6-1.5l-0.8-5.2h-5.1l-0.8,5.2c-1.3,0.3-2.5,0.8-3.6,1.5l-4.2-3.1l-3.6,3.6
					l3.1,4.2c-0.7,1.1-1.2,2.3-1.5,3.6l-5.2,0.8v5.1l5.2,0.8c0.3,1.3,0.8,2.5,1.5,3.6l-3.1,4.2l3.6,3.6l4.2-3.1
					c1.1,0.7,2.3,1.2,3.6,1.5l0.8,5.2h5.1l0.8-5.2c1.3-0.3,2.5-0.8,3.6-1.5l4.2,3.1l3.6-3.6l-3.1-4.2c0.7-1.1,1.2-2.3,1.5-3.6
					L233.9,120.6z"/>
			</g>
			<g id="批量">
				<g transform="translate(97.000000, 100.000000)">
					<path id="形状" class="st11" d="M26.9,15.4c0.7,0.7,1.8,0.7,2.5,0L39.5,5.3c0.8-0.8,0.8-2.2-0.2-2.8C38.6,2,37.7,2,37,2.7
						l-8.7,8.7c0,0,0,0-0.1,0l-3.9-3.9c-0.8-0.8-2.2-0.8-2.8,0.2c-0.5,0.7-0.4,1.6,0.2,2.3C21.8,9.9,26.9,15.4,26.9,15.4L26.9,15.4z
						 M12.6,0.1H4.2C2,0.1,0.1,2,0.1,4.2v8.3c0,2.2,1.9,4.2,4.2,4.2h8.3c2.2,0,4.2-1.9,4.2-4.2V4.2C16.7,2,14.8,0.1,12.6,0.1z
						 M13.2,11.9c0,0.7-0.5,1.2-1.2,1.2H4.8c-0.7,0-1.2-0.5-1.2-1.2V5c0-0.7,0.5-1.2,1.2-1.2H12c0.7,0,1.2,0.5,1.2,1.2V11.9z
						 M12.6,22.3H4.2c-2.2,0-4.2,1.9-4.2,4.2v8.3c0,2.2,1.9,4.2,4.2,4.2h8.3c2.2,0,4.2-1.9,4.2-4.2v-8.3
						C16.7,24.2,14.8,22.3,12.6,22.3z M13.2,34c0,0.7-0.5,1.1-1.2,1.1H4.8c-0.7,0-1.2-0.5-1.2-1.1v-6.8c0-0.7,0.5-1.1,1.2-1.1H12
						c0.7,0,1.2,0.5,1.2,1.1V34L13.2,34z M26.9,37.6c0.7,0.7,1.8,0.7,2.5,0l9.9-9.9c0.7-0.7,0.7-1.8,0-2.5s-1.8-0.7-2.5,0l-8.5,8.5
						l-3.9-3.9c-0.7-0.7-1.8-0.7-2.5,0c-0.7,0.7-0.7,1.8,0,2.5C21.9,32.2,26.9,37.6,26.9,37.6L26.9,37.6z"/>
				</g>
			</g>
			<g id="_x2D_定位">
				<g transform="translate(80.000000, 222.000000)">
					<path id="路径_2_" class="st13" d="M22.2,16.7c-3.1,0-5.5,2.4-5.5,5.5c0,3.1,2.4,5.5,5.5,5.5c3.1,0,5.5-2.4,5.5-5.5
						C27.7,19.1,25.3,16.7,22.2,16.7L22.2,16.7z"/>
					<path id="形状_1_" class="st13" d="M41.8,13.6C40.7,11,39.2,8.9,37.2,7s-4.1-3.4-6.7-4.4c-2.6-1.1-5.4-1.7-8.2-1.7
						c-2.9,0-5.6,0.5-8.2,1.7C11.4,3.7,9.1,5.2,7.3,7c-1.8,1.8-3.5,4.1-4.6,6.6C1.6,16.2,1,19,1,21.7c0,4.1,1.1,8,2.9,11.9
						c1.5,3.1,3.7,6.1,6.4,9c4.6,4.9,9.5,8,10.8,8.7c0.3,0.3,0.9,0.3,1.2,0.3c0.5,0,0.9-0.1,1.2-0.3c1.4-0.8,6.3-3.8,10.8-8.7
						c2.6-2.9,4.9-6,6.4-9c1.8-3.8,2.9-8,2.9-11.9C43.5,19,43,16.2,41.8,13.6L41.8,13.6z M22.2,32.2c-5.6,0-10.1-4.4-10.1-10.1
						c0-5.6,4.4-10.1,10.1-10.1c5.6,0,10.1,4.4,10.1,10.1C32.3,27.8,27.9,32.2,22.2,32.2L22.2,32.2z"/>
				</g>
			</g>
		</g>
	</g>
</g>
</svg>
