<?xml version="1.0" encoding="utf-8"?>
<!-- Generator: Adobe Illustrator 24.1.0, SVG Export Plug-In . SVG Version: 6.00 Build 0)  -->
<svg width="350px" height="350px" version="1.1" id="图层_1" xmlns="http://www.w3.org/2000/svg" xmlns:xlink="http://www.w3.org/1999/xlink" x="0px" y="0px"
	 viewBox="0 0 350 350" style="enable-background:new 0 0 350 350;" xml:space="preserve">
<style type="text/css">
	.st0{opacity:0.4;fill:#E1E8F1;enable-background:new    ;}
	.st1{fill:#D8D8D8;fill-opacity:0;}
	.st2{fill:#CED7E2;}
	.st3{fill:#FFFFFF;}
	.st4{fill:#E8EEF6;}
	.st5{fill:#E5EDF5;}
	.st6{fill-rule:evenodd;clip-rule:evenodd;fill:#E8EEF6;}
	.st7{fill:#BBD9FA;}
	.st8{fill:#FFBBD8;}
	.st9{fill:none;stroke:#C4CBDA;stroke-width:1.4228;stroke-linecap:round;}
	.st10{opacity:0.3;fill:#1A66FF;enable-background:new    ;}
	.st11{fill:#FFA900;}
	.st12{opacity:0.3;fill:#FFA900;enable-background:new    ;}
	.st13{fill:#33C8CD;}
	.st14{fill-rule:evenodd;clip-rule:evenodd;fill:#7266D5;}
	.st15{fill-rule:evenodd;clip-rule:evenodd;fill:#8484EF;}
	.st16{fill-rule:evenodd;clip-rule:evenodd;fill:#FFF0C6;}
	.st17{fill-rule:evenodd;clip-rule:evenodd;fill:#FFCB01;}
	.st18{fill:#1A66FF;}
</style>
<g id="币印与VOS团队达成战略合作">
	<g id="OVS系统介绍" transform="translate(-347.000000, -643.000000)">
		<g id="一站式" transform="translate(347.000000, 643.000000)">
			<circle id="椭圆形" class="st0" cx="211.8" cy="204.7" r="105.5"/>
			<rect id="矩形备份-26" y="0" class="st1" width="350" height="350"/>
			<g id="img_chatillustration" transform="translate(24.186992, 24.186992)">
				<rect id="矩形备份-16" x="0" y="0" class="st1" width="301.6" height="301.6"/>
				<g id="编组-37" transform="translate(5.691057, 17.300813)">
					<path id="矩形" class="st2" d="M15.1,0.6h224c4.4,0,8,3.6,8,8v152c0,4.4-3.6,8-8,8h-224c-4.4,0-8-3.6-8-8V8.6
						C7.1,4.1,10.6,0.6,15.1,0.6z"/>
					<path id="矩形_1_" class="st3" d="M27.1,10.6h202c4.4,0,8,3.6,8,8v132c0,4.4-3.6,8-8,8h-202c-4.4,0-8-3.6-8-8v-132
						C19.1,14.1,22.6,10.6,27.1,10.6z"/>
					<path id="路径" class="st4" d="M44.3,129.4c2.8,0,5-2.2,5-5c0-2.8-2.2-5-5-5s-5,2.2-5,5C39.3,127.1,41.6,129.4,44.3,129.4z"
						/>
					<path id="路径_1_" class="st4" d="M156.6,122.4c0.9,0,1.7,0.9,1.7,2c0,1-0.7,1.9-1.6,2l-0.1,0H58c-0.9,0-1.7-0.9-1.7-2
						c0-1,0.7-1.9,1.6-2l0.1,0H156.6z"/>
					<path id="路径_2_" class="st4" d="M105.7,135.4c0.9,0,1.7,0.9,1.7,2c0,1-0.7,1.9-1.5,2l-0.1,0H59c-0.9,0-1.7-0.9-1.7-2
						c0-1,0.7-1.9,1.5-2l0.1,0H105.7z"/>
					<path id="矩形_2_" class="st5" d="M37.8,29.4h119c0.8,0,1.5,0.7,1.5,1.5v65c0,0.8-0.7,1.5-1.5,1.5h-119
						c-0.8,0-1.5-0.7-1.5-1.5v-65C36.3,30,37,29.4,37.8,29.4z"/>
					<path id="路径_3_" class="st6" d="M96.3,84.4c11,0,20-9,20-20s-9-20-20-20s-20,9-20,20S85.3,84.4,96.3,84.4z"/>
					<path id="路径_4_" class="st4" d="M92.4,58.4c-0.5-0.2-1,0.1-1,0.6v10.6c0,0.5,0.6,0.9,1,0.6l10.6-5.5c0.5-0.3,0.5-1,0-1.3
						L92.4,58.4z"/>
					<path id="路径_5_" class="st4" d="M214.6,33.4c0.9,0,1.7,0.9,1.7,2c0,1-0.7,1.9-1.6,2l-0.1,0H184c-0.9,0-1.7-0.9-1.7-2
						c0-1,0.7-1.9,1.6-2l0.1,0H214.6z"/>
					<path id="路径_6_" class="st4" d="M197.7,44.4c0.9,0,1.6,0.9,1.6,2c0,1-0.7,1.9-1.5,2l-0.1,0h-12.8c-0.9,0-1.6-0.9-1.6-2
						c0-1,0.7-1.9,1.5-2l0.1,0H197.7z"/>
					<path id="路径_7_" class="st4" d="M214.6,68.4c0.9,0,1.7,0.9,1.7,2c0,1.1-0.7,1.9-1.6,2l-0.1,0H184c-0.9,0-1.7-0.9-1.7-2
						c0-1,0.7-1.9,1.6-2l0.1,0H214.6z"/>
					<path id="路径_8_" class="st4" d="M197.7,79.4c0.9,0,1.6,0.9,1.6,2c0,1.1-0.7,1.9-1.5,2l-0.1,0h-12.8c-0.9,0-1.6-0.9-1.6-2
						c0-1,0.7-1.9,1.5-2l0.1,0H197.7z"/>
					<path id="路径_9_" class="st4" d="M214.6,102.4c0.9,0,1.7,0.9,1.7,2c0,1.1-0.7,1.9-1.6,2l-0.1,0H184c-0.9,0-1.7-0.9-1.7-2
						c0-1,0.7-1.9,1.6-2l0.1,0H214.6z"/>
					<path id="路径_10_" class="st4" d="M197.7,113.4c0.9,0,1.6,0.9,1.6,2c0,1.1-0.7,1.9-1.5,2l-0.1,0h-12.8c-0.9,0-1.6-0.9-1.6-2
						c0-1,0.7-1.9,1.5-2l0.1,0H197.7z"/>
					<path id="Fill-9" class="st7" d="M13.8,144.5l-5.7,5.7c-0.6,0.6-1.5,0.6-2,0l-5.7-5.7c-0.6-0.6-0.6-1.5,0-2l5.7-5.7
						c0.6-0.6,1.5-0.6,2,0l5.7,5.7C14.4,143,14.4,143.9,13.8,144.5"/>
					<path id="Fill-11" class="st8" d="M52.2,189.3L41.5,200c-0.5,0.5-1.4,0.5-2,0l-10.7-10.7c-0.5-0.5-0.5-1.4,0-2l10.7-10.7
						c0.5-0.5,1.4-0.5,2,0l10.7,10.7C52.8,187.8,52.8,188.7,52.2,189.3"/>
					<path id="Stroke-25" class="st9" d="M255.1,208.5c1.7,2.4,3.6,4.5,5.6,6.4"/>
					<path id="Fill-65" class="st10" d="M239.5,74.6L239.5,74.6c-7.3,0-13.2-5.9-13.2-13.2c0-7.3,5.9-13.2,13.2-13.2
						c7.3,0,13.2,5.9,13.2,13.2C252.8,68.7,246.9,74.6,239.5,74.6"/>
					<path id="Fill-67" class="st11" d="M246.6,268.1L246.6,268.1c-7.3,0-13.2-5.9-13.2-13.2c0-7.3,5.9-13.2,13.2-13.2
						c7.3,0,13.2,5.9,13.2,13.2C259.8,262.2,253.9,268.1,246.6,268.1"/>
					<path id="Fill-67_1_" class="st12" d="M246.6,272L246.6,272c-5.5,0-10-4.5-10-10c0-5.5,4.5-10,10-10c5.5,0,10,4.5,10,10
						C256.5,267.5,252.1,272,246.6,272"/>
					<path id="矩形_3_" class="st13" d="M153.7,236H222c1.6,0,2.8,1.3,2.8,2.8v0c0,1.6-1.3,2.8-2.8,2.8h-68.3
						c-1.6,0-2.8-1.3-2.8-2.8v0C150.8,237.2,152.1,236,153.7,236z"/>
					<path id="矩形_4_" class="st13" d="M170.7,176.2h111c4.7,0,8.5,3.8,8.5,8.5V216c0,4.7-3.8,8.5-8.5,8.5h-111
						c-4.7,0-8.5-3.8-8.5-8.5v-31.3C162.2,180,166,176.2,170.7,176.2z"/>
				</g>
			</g>
			<g id="编组" transform="translate(84.000000, 90.000000)">
				<polygon id="Fill-1" class="st14" points="37.3,6.2 82.8,6.2 82.8,0 37.3,0 				"/>
				<polygon id="Fill-2" class="st15" points="49.7,6.2 82.8,6.2 82.8,0 49.7,0 				"/>
				<polygon id="Fill-3" class="st14" points="37.3,18.6 82.8,18.6 82.8,12.4 37.3,12.4 				"/>
				<polygon id="Fill-4" class="st15" points="57.9,18.6 82.8,18.6 82.8,12.4 57.9,12.4 				"/>
				<polygon id="Fill-5" class="st14" points="37.3,31.1 82.8,31.1 82.8,24.9 37.3,24.9 				"/>
				<polygon id="Fill-6" class="st15" points="74.5,31.1 82.8,31.1 82.8,24.9 74.5,24.9 				"/>
				<g transform="translate(0.000000, 0.174234)">
					<path id="Fill-7" class="st16" d="M13.5,27.8C6,27.8,0,21.7,0,14.3S6,0.9,13.5,0.9v6.2c-4,0-7.2,3.3-7.2,7.2s3.2,7.3,7.2,7.3
						c4,0,7.2-3.3,7.2-7.3h6.2C26.9,21.7,20.9,27.8,13.5,27.8"/>
					<path id="Fill-9_1_" class="st17" d="M26.9,14.3h-6.2c0-4-3.2-7.2-7.2-7.2V0.9C20.9,0.9,26.9,6.9,26.9,14.3"/>
				</g>
			</g>
			<g id="速度">
				<g transform="translate(298.000000, 85.000000)">
					<path id="形状" class="st18" d="M38.9,1.6c-0.1-0.8-0.7-1.5-1.6-1.5C26.6-0.7,18.9,4.4,14.1,11c-2.6-0.9-5.4-0.6-8,0.9
						c-2.5,1.4-4.6,3.7-5.9,6.6c-0.3,0.7-0.2,1.4,0.4,1.9c0.5,0.5,1.3,0.6,2,0.3c2.7-1.4,5.8-1.2,7.6,0.7l7.4,7.4l0,0
						c1.8,1.8,2.1,4.9,0.7,7.6c-0.3,0.6-0.2,1.4,0.3,2c0.3,0.3,0.8,0.5,1.2,0.5c0.3,0,0.5,0,0.7-0.2c2.9-1.4,5.2-3.5,6.6-5.9
						c1.4-2.6,1.8-5.4,0.9-8.1c1.9-1.4,3.6-2.9,5.1-4.6C37.5,15,39.5,8.8,38.9,1.6L38.9,1.6z M3.8,17c2.3-2.6,5.4-4.3,8.8-3.9
						c-0.7,1.5-1.4,3.1-2.1,5C8.5,17.1,6.2,16.7,3.8,17L3.8,17z M21.7,35.3c0.3-2.2,0-4.4-0.9-6.4c1.7-0.5,3.3-1.2,4.8-1.9
						C26,30.2,24.3,33.1,21.7,35.3L21.7,35.3z M18.8,26.5l-6.4-6.4c3.2-8.6,11.2-17.8,23.9-17.5C36.8,17.8,24.2,24.4,18.8,26.5z"/>
					<path id="形状_1_" class="st18" d="M30.1,8.8c0.5,0.5,0.8,1.2,0.8,1.9c0,0.7-0.3,1.4-0.8,1.9c-0.5,0.5-1.2,0.8-1.9,0.8
						c-0.7,0-1.4-0.3-1.9-0.8c-0.5-0.5-0.8-1.2-0.8-1.9c0-0.7,0.3-1.4,0.8-1.9C26.8,8.3,27.5,8,28.2,8C28.9,8,29.6,8.3,30.1,8.8z
						 M6.3,26.4c-1.9,1.9-2,5.8-2,6.6c0,0.9,0.8,1.7,1.7,1.7h0c0.9,0,4.6-0.1,6.5-2c1.2-1.2,1.4-2.4,1.4-3.2c0-1.1-0.5-2.2-1.4-3.1
						C10.5,24.2,7.8,24.9,6.3,26.4L6.3,26.4z M10.7,31C9.9,31.9,8,32.4,6,32.8c0.3-2,0.9-4,1.7-4.8c0.6-0.6,1.1-1,1.7-1
						c0.4,0,0.9,0.2,1.4,0.8c0.5,0.5,0.8,1,0.8,1.5C11.7,29.9,11.2,30.5,10.7,31L10.7,31z"/>
				</g>
			</g>
			<path id="Fill-25" class="st3" d="M292.4,204.4c3,0,5.5,2.5,5.5,5.5v2.8h-11v-2.8C286.8,206.9,289.3,204.4,292.4,204.4
				 M289.6,223c0-1.5,1.2-2.8,2.8-2.8c1.5,0,2.8,1.2,2.8,2.8c0,1-0.6,1.9-1.4,2.4v3.1c0,0.8-0.6,1.4-1.4,1.4c-0.8,0-1.4-0.6-1.4-1.4
				v-3.1C290.1,224.9,289.6,224,289.6,223 M304.8,212.6h-1.4v-2.8c0-6.1-4.9-11-11-11c-6.1,0-11,4.9-11,11v2.8H280
				c-2.3,0-4.1,1.9-4.1,4.1v16.5c0,2.3,1.9,4.1,4.1,4.1h24.8c2.3,0,4.1-1.8,4.1-4.1v-16.5C308.9,214.5,307,212.6,304.8,212.6"/>
			<g>
				
					<g transform="translate(244.000000, 257.000000) rotate(-90.000000) translate(-244.000000, -257.000000) translate(224.000000, 237.000000)">
					<path id="形状_2_" class="st3" d="M34.9,0.8c-2.4,0-4.4,2-4.4,4.4C30.5,7.2,32,9,34,9.4v9.7h-9.7c-0.4-2-2.2-3.5-4.3-3.5
						s-3.9,1.5-4.3,3.5H5.2c-0.5,0-0.9,0.4-0.9,0.9v10.6c-2,0.4-3.5,2.2-3.5,4.3c0,2.4,2,4.4,4.4,4.4s4.4-2,4.4-4.4
						C9.5,32.7,8,31,6,30.6v-9.7h9.7c0.4,2,2.2,3.5,4.3,3.5s3.9-1.5,4.3-3.5h10.6c0.5,0,0.9-0.4,0.9-0.9V9.4c2-0.4,3.5-2.2,3.5-4.3
						C39.3,2.7,37.3,0.8,34.9,0.8z M7.8,34.9c0,1.5-1.2,2.6-2.6,2.6s-2.6-1.2-2.6-2.6c0-1.5,1.2-2.6,2.6-2.6S7.8,33.4,7.8,34.9z
						 M20,22.6c-1.5,0-2.6-1.2-2.6-2.6s1.2-2.6,2.6-2.6s2.6,1.2,2.6,2.6S21.5,22.6,20,22.6z M34.9,7.7c-1.5,0-2.6-1.2-2.6-2.6
						s1.2-2.6,2.6-2.6s2.6,1.2,2.6,2.6S36.3,7.7,34.9,7.7z"/>
				</g>
			</g>
		</g>
	</g>
</g>
</svg>
