<?xml version="1.0" encoding="UTF-8"?>
<svg width="398px" height="398px" viewBox="0 0 398 398" version="1.1" xmlns="http://www.w3.org/2000/svg" xmlns:xlink="http://www.w3.org/1999/xlink">
    <title>高稳定性</title>
    <g id="币印与VOS团队达成战略合作" stroke="none" stroke-width="1" fill="none" fill-rule="evenodd">
        <g id="OVS系统介绍-动效说明" transform="translate(-922.000000, -1023.000000)">
            <g id="高稳定性" transform="translate(922.000000, 1023.000000)">
                <rect id="矩形" fill-opacity="0" fill="#D8D8D8" fill-rule="nonzero" x="0" y="0" width="398" height="398"></rect>
                <g id="编组-23" transform="translate(16.311475, 35.885246)">
                    <g id="编组-29">
                        <g id="编组" transform="translate(0.000000, 107.525244)">
                            <path d="M300.454121,56.2872829 L300.454121,166.752428 C300.454121,174.658868 294.041007,181.071984 286.134566,181.071984 L87.7064345,181.071984 C79.7999939,181.071984 73.3868786,174.658868 73.3868786,166.752428 L73.3868786,56.2872829 C73.3868786,48.3808423 79.7999939,41.9677269 87.7064345,41.9677269 L286.134566,41.9677269 C294.041007,41.9677269 300.454121,48.3808423 300.454121,56.2872829" id="Fill-1" fill-opacity="0.18" fill="#B9C0C8" fill-rule="nonzero"></path>
                            <path d="M317.412171,17.208372 L317.412171,144.173241 C317.412171,153.260633 310.041153,160.631648 300.953761,160.631648 L72.887239,160.631648 C63.7998463,160.631648 56.4288302,153.260633 56.4288302,144.173241 L56.4288302,17.208372 C56.4288302,8.12097909 63.7998463,0.749963144 72.887239,0.749963144 L300.953761,0.749963144 C310.041153,0.749963144 317.412171,8.12097909 317.412171,17.208372" id="Fill-1" fill="#E8EEF6" fill-rule="nonzero"></path>
                            <polygon id="Fill-3" fill="#D6DFE9" fill-rule="nonzero" points="56.4288302 43.9371806 100.236412 87.7447625 56.4288302 131.551168"></polygon>
                            <path d="M317.412171,93.622413 L317.412171,144.173241 C317.412171,153.260633 310.041153,160.631648 300.953761,160.631648 L249.23909,160.631648 C249.862157,123.517936 280.14563,93.622413 317.412171,93.622413" id="Fill-9" fill="#FFFFFF" fill-rule="nonzero"></path>
                            <path d="M317.412171,110.080822 L317.412171,144.173241 C317.412171,153.260633 310.041153,160.631648 300.953761,160.631648 L265.697499,160.631648 C266.320566,132.60533 289.233023,110.080822 317.412171,110.080822" id="Fill-13" fill="#D6DFE9" fill-rule="nonzero"></path>
                            <path d="M109.330859,36.0179822 C109.330859,38.6148839 107.225358,40.7203846 104.628456,40.7203846 C102.031554,40.7203846 99.9260536,38.6148839 99.9260536,36.0179822 C99.9260536,33.4210803 102.031554,31.3155795 104.628456,31.3155795 C107.225358,31.3155795 109.330859,33.4210803 109.330859,36.0179822" id="Fill-19" fill="#34C8CD" fill-rule="nonzero"></path>
                            <path d="M106.979657,36.0179822 C106.979657,37.3158452 105.926319,38.3691833 104.628456,38.3691833 C103.330593,38.3691833 102.277255,37.3158452 102.277255,36.0179822 C102.277255,34.720119 103.330593,33.6667809 104.628456,33.6667809 C105.926319,33.6667809 106.979657,34.720119 106.979657,36.0179822" id="Fill-21" fill="#D6DFE9" fill-rule="nonzero"></path>
                            <path d="M86.9944466,139.470838 L7.05360379,139.470838 C3.1588389,139.470838 0,136.311999 0,132.417234 L0,90.095611 C0,86.2008461 3.1588389,83.0420073 7.05360379,83.0420073 L86.9944466,83.0420073 C90.8892116,83.0420073 94.0480503,86.2008461 94.0480503,90.095611 L94.0480503,132.417234 C94.0480503,136.311999 90.8892116,139.470838 86.9944466,139.470838" id="Fill-23" fill="#34C8CD" fill-rule="nonzero"></path>
                            <path d="M80.1545872,148.630156 L8.05786856,148.630156 C4.54527402,148.630156 1.69639338,145.781275 1.69639338,142.26868 L1.69639338,104.09983 C1.69639338,100.587235 4.54527402,97.7383541 8.05786856,97.7383541 L80.1545872,97.7383541 C83.6671817,97.7383541 86.5160656,100.587235 86.5160656,104.09983 L86.5160656,142.26868 C86.5160656,145.781275 83.6671817,148.630156 80.1545872,148.630156" id="Fill-23" fill-opacity="0.2" fill="#34C8CD" fill-rule="nonzero"></path>
                            <path d="M96.3992516,36.0179822 L44.6728239,36.0179822 C43.3749608,36.0179822 42.3216226,37.0713203 42.3216226,38.3691833 L42.3216226,77.1640041" id="Stroke-25" stroke="#CDD9E6" stroke-width="1.63114754" stroke-linecap="round"></path>
                            <path d="M44.6728239,77.1640041 C44.6728239,78.4618673 43.6194858,79.5152054 42.3216226,79.5152054 C41.0237596,79.5152054 39.9704215,78.4618673 39.9704215,77.1640041 C39.9704215,75.8661411 41.0237596,74.812803 42.3216226,74.812803 C43.6194858,74.812803 44.6728239,75.8661411 44.6728239,77.1640041" id="Fill-27" fill="#34C8CD" fill-rule="nonzero"></path>
                            <path d="M78.7652423,99.5004159 L15.2828082,99.5004159 C14.6327011,99.5004159 14.1072076,98.9749222 14.1072076,98.3248153 C14.1072076,97.6747084 14.6327011,97.1492146 15.2828082,97.1492146 L78.7652423,97.1492146 C79.4153494,97.1492146 79.9408428,97.6747084 79.9408428,98.3248153 C79.9408428,98.9749222 79.4153494,99.5004159 78.7652423,99.5004159" id="Fill-29" fill="#FFFFFF" fill-rule="nonzero"></path>
                            <path d="M78.7652423,112.432023 L15.2828082,112.432023 C14.6327011,112.432023 14.1072076,111.906529 14.1072076,111.256423 C14.1072076,110.606316 14.6327011,110.080822 15.2828082,110.080822 L78.7652423,110.080822 C79.4153494,110.080822 79.9408428,110.606316 79.9408428,111.256423 C79.9408428,111.906529 79.4153494,112.432023 78.7652423,112.432023" id="Fill-31" fill="#FFFFFF" fill-rule="nonzero"></path>
                            <path d="M49.3752264,125.36363 L15.2828082,125.36363 C14.6327011,125.36363 14.1072076,124.838137 14.1072076,124.18803 C14.1072076,123.537923 14.6327011,123.012429 15.2828082,123.012429 L49.3752264,123.012429 C50.0253336,123.012429 50.5508271,123.537923 50.5508271,124.18803 C50.5508271,124.838137 50.0253336,125.36363 49.3752264,125.36363" id="Fill-33" fill="#FFFFFF" fill-rule="nonzero"></path>
                            <g id="Fill-35" transform="translate(296.251359, 7.803566)" fill="#C6ECEF" fill-rule="nonzero">
                                <path d="M49.1272923,0 L2.59937056,0 C1.16396218,0 0.000117560063,1.16384462 0.000117560063,2.599253 L0.000117560063,27.9663634 C0.000117560063,29.4017717 1.16396218,30.5656164 2.59937056,30.5656164 L49.1272923,30.5656164 C50.5627007,30.5656164 51.7265453,29.4017717 51.7265453,27.9663634 L51.7265453,2.599253 C51.7265453,1.16384462 50.5627007,0 49.1272923,0" id="路径" style="mix-blend-mode: multiply;"></path>
                            </g>
                            <path d="M296.251359,172.863984 C296.251359,188.122105 283.882864,200.490598 268.624743,200.490598 C253.366624,200.490598 240.99813,188.122105 240.99813,172.863984 C240.99813,157.605863 253.366624,145.237369 268.624743,145.237369 C283.882864,145.237369 296.251359,157.605863 296.251359,172.863984" id="Fill-37" fill-opacity="0.3" fill="#80B1FF" fill-rule="nonzero"></path>
                            <path d="M296.251359,161.219449 C296.251359,176.47757 283.882864,188.846064 268.624743,188.846064 C253.366624,188.846064 240.99813,176.47757 240.99813,161.219449 C240.99813,145.961329 253.366624,133.592835 268.624743,133.592835 C283.882864,133.592835 296.251359,145.961329 296.251359,161.219449" id="Fill-37" fill="#80B1FF" fill-rule="nonzero"></path>
                            <path d="M298.60256,161.219449 C298.60256,177.775433 285.180728,191.197265 268.624743,191.197265 C252.068761,191.197265 238.646928,177.775433 238.646928,161.219449 C238.646928,144.663466 252.068761,131.241634 268.624743,131.241634 C285.180728,131.241634 298.60256,144.663466 298.60256,161.219449 Z" id="Stroke-39" stroke="#80B1FF" stroke-width="1.17560063" opacity="0.5"></path>
                            <path d="M301.541562,161.219449 C301.541562,179.398937 286.804232,194.136267 268.624743,194.136267 C250.445257,194.136267 235.707927,179.398937 235.707927,161.219449 C235.707927,143.03996 250.445257,128.302632 268.624743,128.302632 C286.804232,128.302632 301.541562,143.03996 301.541562,161.219449 Z" id="Stroke-41" stroke="#80B1FF" stroke-width="1.17560063" opacity="0.200000003"></path>
                            <path d="M202.791108,175.914457 L60.5434325,175.914457 C58.5954622,175.914457 57.0166305,174.335625 57.0166305,172.387655 C57.0166305,170.439685 58.5954622,168.860853 60.5434325,168.860853 L202.791108,168.860853 C204.739078,168.860853 206.31791,170.439685 206.31791,172.387655 C206.31791,174.335625 204.739078,175.914457 202.791108,175.914457" id="Fill-47" fill="#E8EEF6" fill-rule="nonzero"></path>
                            <path d="M155.767083,192.372866 L60.5434325,192.372866 C58.5954622,192.372866 57.0166305,190.794034 57.0166305,188.846064 C57.0166305,186.898094 58.5954622,185.319262 60.5434325,185.319262 L155.767083,185.319262 C157.715054,185.319262 159.293885,186.898094 159.293885,188.846064 C159.293885,190.794034 157.715054,192.372866 155.767083,192.372866" id="Fill-49" fill="#E8EEF6" fill-rule="nonzero"></path>
                        </g>
                        <path d="M313.06773,7.20585777 L325.826305,28.3734544 C324.995072,29.1945088 324.637133,30.4277867 325.00525,31.6169585 L302.13617,48.5367861 L313.06773,7.20585777 Z M331.270031,31.2115205 C331.358244,30.709388 331.342976,30.1818097 331.175033,29.6644097 C330.725489,28.2886347 329.439623,27.4336525 328.063848,27.4472236 L319.607326,13.4180503 L340.310112,37.0454174 L331.270031,31.2115205 Z M326.52013,33.4745093 C327.278418,33.8969113 328.202952,34.0241406 329.095255,33.7357539 C329.646583,33.5559362 330.106305,33.2353179 330.47103,32.8366654 L342.644349,40.6824847 C342.63926,40.7316802 342.622296,40.7757864 342.618904,40.8232854 L304.819865,49.5291762 L326.52013,33.4745093 Z M348.926093,40.0955326 C348.373068,38.3991392 346.546053,37.4695157 344.84457,38.02254 C344.496809,38.134502 344.193157,38.3109269 343.914948,38.5178867 L314.964298,5.47553653 C315.775174,4.64430377 316.119542,3.41272218 315.73446,2.23372877 C315.181436,0.535639004 313.356117,-0.392288175 311.654634,0.159039674 C309.953151,0.710367522 309.023528,2.53399041 309.574856,4.23038379 C309.81744,4.97340409 310.31109,5.55696341 310.923488,5.9454375 L299.769703,48.1143841 C299.549172,48.1381336 299.326944,48.1822398 299.10811,48.2534884 C297.406627,48.8048162 296.475307,50.6284392 297.028331,52.3248325 C297.581356,54.0212259 299.406675,54.9508495 301.10646,54.3995216 C302.361791,53.9923872 303.19472,52.8914279 303.323646,51.6598464 L342.959879,42.5315536 C343.662185,43.93956 345.302596,44.6673128 346.846314,44.1668767 C348.546101,43.6155488 349.477421,41.7936225 348.926093,40.0955326 L348.926093,40.0955326 Z" id="Fill-1" fill="#1A66FF" fill-rule="nonzero"></path>
                    </g>
                    <path d="M311.052088,317.422527 L304.537285,323.93733 C303.899506,324.575109 302.86699,324.575109 302.230842,323.93733 L295.716039,317.422527 C295.07826,316.784748 295.07826,315.753863 295.716039,315.116084 L302.230842,308.601281 C302.86699,307.963502 303.899506,307.963502 304.537285,308.601281 L311.052088,315.116084 C311.689867,315.753863 311.689867,316.784748 311.052088,317.422527" id="Fill-9" fill="#BBD9FA" fill-rule="nonzero"></path>
                    <path d="M34.5562684,153.72626 L21.9328176,166.349711 C21.2966701,166.98749 20.2625225,166.98749 19.626375,166.349711 L7.00292418,153.72626 C6.36514549,153.090113 6.36514549,152.057596 7.00292418,151.419818 L19.626375,138.797998 C20.2625225,138.160219 21.2966701,138.160219 21.9328176,138.797998 L34.5562684,151.419818 C35.1940471,152.057596 35.1940471,153.090113 34.5562684,153.72626" id="Fill-11" fill="#FFBBD8" fill-rule="nonzero"></path>
                    <rect id="矩形" fill="#C4D8FC" fill-rule="nonzero" transform="translate(349.065574, 257.557373) rotate(-45.000000) translate(-349.065574, -257.557373) " x="337.647541" y="246.13934" width="22.8360656" height="22.8360656" rx="3.26229508"></rect>
                    <rect id="矩形" fill="#33C8CD" fill-rule="nonzero" opacity="0.251697359" transform="translate(45.672131, 84.491795) rotate(-45.000000) translate(-45.672131, -84.491795) " x="22.8360655" y="61.6557295" width="45.6721311" height="45.6721311" rx="3.26229508"></rect>
                </g>
                <g id="稳定" transform="translate(86.233333, 65.227778)" fill-rule="nonzero">
                    <polygon id="路径" fill="#1890FF" points="116.983844 71.2306367 191.991868 110.728035 116.983844 149.569896 42.347338 110.728035"></polygon>
                    <polygon id="路径" fill="#0EDEDE" points="117.456012 0.742827028 43.4403773 98.7192585 117.451708 136.896499"></polygon>
                    <polygon id="路径" fill="#2F54EB" points="117.018987 0.742827028 191.034622 98.7192585 117.023291 136.896499"></polygon>
                    <polygon id="路径" fill="#0EDEDE" points="117.456012 205.81934 43.4403773 108.581642 117.451708 146.426572"></polygon>
                    <polygon id="路径" fill="#2F54EB" points="117.018987 205.81934 191.034622 108.581642 117.023291 146.426572"></polygon>
                    <path d="M112.314998,234.720091 L112.314998,234.720092 C112.314998,237.13446 114.272236,239.091699 116.686605,239.091699 C119.100974,239.091699 121.058212,237.13446 121.058212,234.720092 L121.058212,234.720092 C121.058212,232.305723 119.100976,230.348484 116.686605,230.348484 C114.272236,230.348484 112.314998,232.30572 112.314998,234.720092 C112.314998,234.720092 112.314998,234.720092 112.314998,234.720092 L112.314998,234.720091 Z" id="路径" fill="#697B8C"></path>
                    <path d="M0.0564739373,109.429872 L0.0564739373,109.429872 C0.0564739373,111.844241 2.01371225,113.801479 4.428081,113.801479 C6.84244974,113.801479 8.79968805,111.844241 8.79968805,109.429872 L8.79968805,109.429872 C8.79968805,107.015503 6.84245213,105.058265 4.428081,105.058265 C2.01371225,105.058265 0.0564739373,107.015501 0.0564739373,109.429872 L0.0564739373,109.429872 Z" id="路径" fill="#A3B1BF"></path>
                    <path d="M227.764995,109.429872 L227.764995,109.429872 C227.764995,111.844241 229.722234,113.801479 232.136602,113.801479 C234.550971,113.801479 236.50821,111.844241 236.50821,109.429872 L236.50821,109.429872 C236.50821,107.015503 234.550974,105.058265 232.136602,105.058265 C229.722234,105.058265 227.764995,107.015501 227.764995,109.429872 L227.764995,109.429872 Z" id="路径" fill="#A3B1BF"></path>
                </g>
            </g>
        </g>
    </g>
</svg>