<?xml version="1.0" encoding="UTF-8"?>
<svg width="34px" height="34px" viewBox="0 0 34 34" version="1.1" xmlns="http://www.w3.org/2000/svg" xmlns:xlink="http://www.w3.org/1999/xlink">
    <title>编组 2</title>
    <defs>
        <linearGradient x1="100%" y1="100%" x2="100%" y2="0%" id="linearGradient-1">
            <stop stop-color="#8027F0" offset="0%"></stop>
            <stop stop-color="#505EFF" offset="100%"></stop>
        </linearGradient>
        <filter id="filter-2">
            <feColorMatrix in="SourceGraphic" type="matrix" values="0 0 0 0 1.000000 0 0 0 0 1.000000 0 0 0 0 1.000000 0 0 0 1.000000 0"></feColorMatrix>
        </filter>
    </defs>
    <g id="币印与VOS团队达成战略合作" stroke="none" stroke-width="1" fill="none" fill-rule="evenodd">
        <g id="OVS系统介绍-动效说明" transform="translate(-862.000000, -760.000000)">
            <g id="编组-2" transform="translate(862.000000, 760.000000)">
                <circle id="椭圆形" fill="url(#linearGradient-1)" cx="17" cy="17" r="17"></circle>
                <g filter="url(#filter-2)" id="对号">
                    <g transform="translate(8.052632, 11.631579)">
                        <path d="M7.12135807,13.1138793 L7.12135812,13.1138793 C6.75249379,13.1090152 6.40432363,12.9426102 6.16885715,12.6586388 L0.781272556,6.43235686 L0.781272642,6.43235696 C0.255786798,5.79281856 0.255786798,4.87098469 0.781272471,4.23144492 L0.78127243,4.23144497 C1.20726565,3.70539276 1.97905002,3.6242796 2.50509812,4.05027144 C2.571653,4.10416699 2.63237569,4.16488982 2.68627165,4.23144497 L7.12135252,9.35639539 L14.9018043,0.461674091 L14.9018043,0.46167415 C15.3277975,-0.0643780574 16.0995819,-0.145491219 16.62563,0.280500628 C16.6921848,0.334396173 16.7529075,0.395119003 16.8068035,0.46167415 L16.8068035,0.461674162 C17.3320171,1.10065031 17.3320171,2.02185626 16.8068035,2.66083513 L8.07384797,12.6586391 L8.07384802,12.658639 C7.83808467,12.94223 7.49010056,13.1085454 7.12134704,13.1138793 L7.12135807,13.1138793 Z" id="路径" fill="#000000" fill-rule="nonzero"></path>
                    </g>
                </g>
            </g>
        </g>
    </g>
</svg>