<?xml version="1.0" encoding="UTF-8"?>
<svg width="290px" height="202px" viewBox="0 0 290 202" version="1.1" xmlns="http://www.w3.org/2000/svg" xmlns:xlink="http://www.w3.org/1999/xlink">
    <title>形状结合备份 14</title>
    <g id="币印与VOS团队达成战略合作" stroke="none" stroke-width="1" fill="none" fill-rule="evenodd" opacity="0.158725472">
        <g id="OVS系统介绍-动效说明" transform="translate(-98.000000, -3425.000000)" fill="#D5E6FC">
            <path d="M340.892308,3664.76344 C342.608639,3664.76344 344,3666.15954 344,3667.88172 C344,3669.6039 342.608639,3671 340.892308,3671 C339.175977,3671 337.784615,3669.6039 337.784615,3667.88172 C337.784615,3666.15954 339.175977,3664.76344 340.892308,3664.76344 Z M319.138462,3664.76344 C320.854793,3664.76344 322.246154,3666.15954 322.246154,3667.88172 C322.246154,3669.6039 320.854793,3671 319.138462,3671 C317.42213,3671 316.030769,3669.6039 316.030769,3667.88172 C316.030769,3666.15954 317.42213,3664.76344 319.138462,3664.76344 Z M297.384615,3664.76344 C299.100946,3664.76344 300.492308,3666.15954 300.492308,3667.88172 C300.492308,3669.6039 299.100946,3671 297.384615,3671 C295.668284,3671 294.276923,3669.6039 294.276923,3667.88172 C294.276923,3666.15954 295.668284,3664.76344 297.384615,3664.76344 Z M275.630769,3664.76344 C277.3471,3664.76344 278.738462,3666.15954 278.738462,3667.88172 C278.738462,3669.6039 277.3471,3671 275.630769,3671 C273.914438,3671 272.523077,3669.6039 272.523077,3667.88172 C272.523077,3666.15954 273.914438,3664.76344 275.630769,3664.76344 Z M253.876923,3664.76344 C255.593254,3664.76344 256.984615,3666.15954 256.984615,3667.88172 C256.984615,3669.6039 255.593254,3671 253.876923,3671 C252.160592,3671 250.769231,3669.6039 250.769231,3667.88172 C250.769231,3666.15954 252.160592,3664.76344 253.876923,3664.76344 Z M232.123077,3664.76344 C233.839408,3664.76344 235.230769,3666.15954 235.230769,3667.88172 C235.230769,3669.6039 233.839408,3671 232.123077,3671 C230.406746,3671 229.015385,3669.6039 229.015385,3667.88172 C229.015385,3666.15954 230.406746,3664.76344 232.123077,3664.76344 Z M210.369231,3664.76344 C212.085562,3664.76344 213.476923,3666.15954 213.476923,3667.88172 C213.476923,3669.6039 212.085562,3671 210.369231,3671 C208.6529,3671 207.261538,3669.6039 207.261538,3667.88172 C207.261538,3666.15954 208.6529,3664.76344 210.369231,3664.76344 Z M188.615385,3664.76344 C190.331716,3664.76344 191.723077,3666.15954 191.723077,3667.88172 C191.723077,3669.6039 190.331716,3671 188.615385,3671 C186.899054,3671 185.507692,3669.6039 185.507692,3667.88172 C185.507692,3666.15954 186.899054,3664.76344 188.615385,3664.76344 Z M166.861538,3664.76344 C168.57787,3664.76344 169.969231,3666.15954 169.969231,3667.88172 C169.969231,3669.6039 168.57787,3671 166.861538,3671 C165.145207,3671 163.753846,3669.6039 163.753846,3667.88172 C163.753846,3666.15954 165.145207,3664.76344 166.861538,3664.76344 Z M145.107692,3664.76344 C146.824023,3664.76344 148.215385,3666.15954 148.215385,3667.88172 C148.215385,3669.6039 146.824023,3671 145.107692,3671 C143.391361,3671 142,3669.6039 142,3667.88172 C142,3666.15954 143.391361,3664.76344 145.107692,3664.76344 Z M340.892308,3642.93548 C342.608639,3642.93548 344,3644.33159 344,3646.05376 C344,3647.77594 342.608639,3649.17204 340.892308,3649.17204 C339.175977,3649.17204 337.784615,3647.77594 337.784615,3646.05376 C337.784615,3644.33159 339.175977,3642.93548 340.892308,3642.93548 Z M145.107692,3642.93548 C146.824023,3642.93548 148.215385,3644.33159 148.215385,3646.05376 C148.215385,3647.77594 146.824023,3649.17204 145.107692,3649.17204 C143.391361,3649.17204 142,3647.77594 142,3646.05376 C142,3644.33159 143.391361,3642.93548 145.107692,3642.93548 Z M166.861538,3642.93548 C168.57787,3642.93548 169.969231,3644.33159 169.969231,3646.05376 C169.969231,3647.77594 168.57787,3649.17204 166.861538,3649.17204 C165.145207,3649.17204 163.753846,3647.77594 163.753846,3646.05376 C163.753846,3644.33159 165.145207,3642.93548 166.861538,3642.93548 Z M188.615385,3642.93548 C190.331716,3642.93548 191.723077,3644.33159 191.723077,3646.05376 C191.723077,3647.77594 190.331716,3649.17204 188.615385,3649.17204 C186.899054,3649.17204 185.507692,3647.77594 185.507692,3646.05376 C185.507692,3644.33159 186.899054,3642.93548 188.615385,3642.93548 Z M210.369231,3642.93548 C212.085562,3642.93548 213.476923,3644.33159 213.476923,3646.05376 C213.476923,3647.77594 212.085562,3649.17204 210.369231,3649.17204 C208.6529,3649.17204 207.261538,3647.77594 207.261538,3646.05376 C207.261538,3644.33159 208.6529,3642.93548 210.369231,3642.93548 Z M232.123077,3642.93548 C233.839408,3642.93548 235.230769,3644.33159 235.230769,3646.05376 C235.230769,3647.77594 233.839408,3649.17204 232.123077,3649.17204 C230.406746,3649.17204 229.015385,3647.77594 229.015385,3646.05376 C229.015385,3644.33159 230.406746,3642.93548 232.123077,3642.93548 Z M253.876923,3642.93548 C255.593254,3642.93548 256.984615,3644.33159 256.984615,3646.05376 C256.984615,3647.77594 255.593254,3649.17204 253.876923,3649.17204 C252.160592,3649.17204 250.769231,3647.77594 250.769231,3646.05376 C250.769231,3644.33159 252.160592,3642.93548 253.876923,3642.93548 Z M275.630769,3642.93548 C277.3471,3642.93548 278.738462,3644.33159 278.738462,3646.05376 C278.738462,3647.77594 277.3471,3649.17204 275.630769,3649.17204 C273.914438,3649.17204 272.523077,3647.77594 272.523077,3646.05376 C272.523077,3644.33159 273.914438,3642.93548 275.630769,3642.93548 Z M297.384615,3642.93548 C299.100946,3642.93548 300.492308,3644.33159 300.492308,3646.05376 C300.492308,3647.77594 299.100946,3649.17204 297.384615,3649.17204 C295.668284,3649.17204 294.276923,3647.77594 294.276923,3646.05376 C294.276923,3644.33159 295.668284,3642.93548 297.384615,3642.93548 Z M319.138462,3642.93548 C320.854793,3642.93548 322.246154,3644.33159 322.246154,3646.05376 C322.246154,3647.77594 320.854793,3649.17204 319.138462,3649.17204 C317.42213,3649.17204 316.030769,3647.77594 316.030769,3646.05376 C316.030769,3644.33159 317.42213,3642.93548 319.138462,3642.93548 Z M145.107692,3621.10753 C146.824023,3621.10753 148.215385,3622.50363 148.215385,3624.22581 C148.215385,3625.94798 146.824023,3627.34409 145.107692,3627.34409 C143.391361,3627.34409 142,3625.94798 142,3624.22581 C142,3622.50363 143.391361,3621.10753 145.107692,3621.10753 Z M166.861538,3621.10753 C168.57787,3621.10753 169.969231,3622.50363 169.969231,3624.22581 C169.969231,3625.94798 168.57787,3627.34409 166.861538,3627.34409 C165.145207,3627.34409 163.753846,3625.94798 163.753846,3624.22581 C163.753846,3622.50363 165.145207,3621.10753 166.861538,3621.10753 Z M188.615385,3621.10753 C190.331716,3621.10753 191.723077,3622.50363 191.723077,3624.22581 C191.723077,3625.94798 190.331716,3627.34409 188.615385,3627.34409 C186.899054,3627.34409 185.507692,3625.94798 185.507692,3624.22581 C185.507692,3622.50363 186.899054,3621.10753 188.615385,3621.10753 Z M210.369231,3621.10753 C212.085562,3621.10753 213.476923,3622.50363 213.476923,3624.22581 C213.476923,3625.94798 212.085562,3627.34409 210.369231,3627.34409 C208.6529,3627.34409 207.261538,3625.94798 207.261538,3624.22581 C207.261538,3622.50363 208.6529,3621.10753 210.369231,3621.10753 Z M232.123077,3621.10753 C233.839408,3621.10753 235.230769,3622.50363 235.230769,3624.22581 C235.230769,3625.94798 233.839408,3627.34409 232.123077,3627.34409 C230.406746,3627.34409 229.015385,3625.94798 229.015385,3624.22581 C229.015385,3622.50363 230.406746,3621.10753 232.123077,3621.10753 Z M253.876923,3621.10753 C255.593254,3621.10753 256.984615,3622.50363 256.984615,3624.22581 C256.984615,3625.94798 255.593254,3627.34409 253.876923,3627.34409 C252.160592,3627.34409 250.769231,3625.94798 250.769231,3624.22581 C250.769231,3622.50363 252.160592,3621.10753 253.876923,3621.10753 Z M275.630769,3621.10753 C277.3471,3621.10753 278.738462,3622.50363 278.738462,3624.22581 C278.738462,3625.94798 277.3471,3627.34409 275.630769,3627.34409 C273.914438,3627.34409 272.523077,3625.94798 272.523077,3624.22581 C272.523077,3622.50363 273.914438,3621.10753 275.630769,3621.10753 Z M297.384615,3621.10753 C299.100946,3621.10753 300.492308,3622.50363 300.492308,3624.22581 C300.492308,3625.94798 299.100946,3627.34409 297.384615,3627.34409 C295.668284,3627.34409 294.276923,3625.94798 294.276923,3624.22581 C294.276923,3622.50363 295.668284,3621.10753 297.384615,3621.10753 Z M319.138462,3621.10753 C320.854793,3621.10753 322.246154,3622.50363 322.246154,3624.22581 C322.246154,3625.94798 320.854793,3627.34409 319.138462,3627.34409 C317.42213,3627.34409 316.030769,3625.94798 316.030769,3624.22581 C316.030769,3622.50363 317.42213,3621.10753 319.138462,3621.10753 Z M340.892308,3621.10753 C342.608639,3621.10753 344,3622.50363 344,3624.22581 C344,3625.94798 342.608639,3627.34409 340.892308,3627.34409 C339.175977,3627.34409 337.784615,3625.94798 337.784615,3624.22581 C337.784615,3622.50363 339.175977,3621.10753 340.892308,3621.10753 Z M166.861538,3599.27957 C168.57787,3599.27957 169.969231,3600.67567 169.969231,3602.39785 C169.969231,3604.12003 168.57787,3605.51613 166.861538,3605.51613 C165.145207,3605.51613 163.753846,3604.12003 163.753846,3602.39785 C163.753846,3600.67567 165.145207,3599.27957 166.861538,3599.27957 Z M188.615385,3599.27957 C190.331716,3599.27957 191.723077,3600.67567 191.723077,3602.39785 C191.723077,3604.12003 190.331716,3605.51613 188.615385,3605.51613 C186.899054,3605.51613 185.507692,3604.12003 185.507692,3602.39785 C185.507692,3600.67567 186.899054,3599.27957 188.615385,3599.27957 Z M210.369231,3599.27957 C212.085562,3599.27957 213.476923,3600.67567 213.476923,3602.39785 C213.476923,3604.12003 212.085562,3605.51613 210.369231,3605.51613 C208.6529,3605.51613 207.261538,3604.12003 207.261538,3602.39785 C207.261538,3600.67567 208.6529,3599.27957 210.369231,3599.27957 Z M232.123077,3599.27957 C233.839408,3599.27957 235.230769,3600.67567 235.230769,3602.39785 C235.230769,3604.12003 233.839408,3605.51613 232.123077,3605.51613 C230.406746,3605.51613 229.015385,3604.12003 229.015385,3602.39785 C229.015385,3600.67567 230.406746,3599.27957 232.123077,3599.27957 Z M253.876923,3599.27957 C255.593254,3599.27957 256.984615,3600.67567 256.984615,3602.39785 C256.984615,3604.12003 255.593254,3605.51613 253.876923,3605.51613 C252.160592,3605.51613 250.769231,3604.12003 250.769231,3602.39785 C250.769231,3600.67567 252.160592,3599.27957 253.876923,3599.27957 Z M275.630769,3599.27957 C277.3471,3599.27957 278.738462,3600.67567 278.738462,3602.39785 C278.738462,3604.12003 277.3471,3605.51613 275.630769,3605.51613 C273.914438,3605.51613 272.523077,3604.12003 272.523077,3602.39785 C272.523077,3600.67567 273.914438,3599.27957 275.630769,3599.27957 Z M297.384615,3599.27957 C299.100946,3599.27957 300.492308,3600.67567 300.492308,3602.39785 C300.492308,3604.12003 299.100946,3605.51613 297.384615,3605.51613 C295.668284,3605.51613 294.276923,3604.12003 294.276923,3602.39785 C294.276923,3600.67567 295.668284,3599.27957 297.384615,3599.27957 Z M319.138462,3599.27957 C320.854793,3599.27957 322.246154,3600.67567 322.246154,3602.39785 C322.246154,3604.12003 320.854793,3605.51613 319.138462,3605.51613 C317.42213,3605.51613 316.030769,3604.12003 316.030769,3602.39785 C316.030769,3600.67567 317.42213,3599.27957 319.138462,3599.27957 Z M340.892308,3599.27957 C342.608639,3599.27957 344,3600.67567 344,3602.39785 C344,3604.12003 342.608639,3605.51613 340.892308,3605.51613 C339.175977,3605.51613 337.784615,3604.12003 337.784615,3602.39785 C337.784615,3600.67567 339.175977,3599.27957 340.892308,3599.27957 Z M145.107692,3599.27957 C146.824023,3599.27957 148.215385,3600.67567 148.215385,3602.39785 C148.215385,3604.12003 146.824023,3605.51613 145.107692,3605.51613 C143.391361,3605.51613 142,3604.12003 142,3602.39785 C142,3600.67567 143.391361,3599.27957 145.107692,3599.27957 Z M166.861538,3577.45161 C168.57787,3577.45161 169.969231,3578.84771 169.969231,3580.56989 C169.969231,3582.29207 168.57787,3583.68817 166.861538,3583.68817 C165.145207,3583.68817 163.753846,3582.29207 163.753846,3580.56989 C163.753846,3578.84771 165.145207,3577.45161 166.861538,3577.45161 Z M188.615385,3577.45161 C190.331716,3577.45161 191.723077,3578.84771 191.723077,3580.56989 C191.723077,3582.29207 190.331716,3583.68817 188.615385,3583.68817 C186.899054,3583.68817 185.507692,3582.29207 185.507692,3580.56989 C185.507692,3578.84771 186.899054,3577.45161 188.615385,3577.45161 Z M210.369231,3577.45161 C212.085562,3577.45161 213.476923,3578.84771 213.476923,3580.56989 C213.476923,3582.29207 212.085562,3583.68817 210.369231,3583.68817 C208.6529,3583.68817 207.261538,3582.29207 207.261538,3580.56989 C207.261538,3578.84771 208.6529,3577.45161 210.369231,3577.45161 Z M232.123077,3577.45161 C233.839408,3577.45161 235.230769,3578.84771 235.230769,3580.56989 C235.230769,3582.29207 233.839408,3583.68817 232.123077,3583.68817 C230.406746,3583.68817 229.015385,3582.29207 229.015385,3580.56989 C229.015385,3578.84771 230.406746,3577.45161 232.123077,3577.45161 Z M253.876923,3577.45161 C255.593254,3577.45161 256.984615,3578.84771 256.984615,3580.56989 C256.984615,3582.29207 255.593254,3583.68817 253.876923,3583.68817 C252.160592,3583.68817 250.769231,3582.29207 250.769231,3580.56989 C250.769231,3578.84771 252.160592,3577.45161 253.876923,3577.45161 Z M275.630769,3577.45161 C277.3471,3577.45161 278.738462,3578.84771 278.738462,3580.56989 C278.738462,3582.29207 277.3471,3583.68817 275.630769,3583.68817 C273.914438,3583.68817 272.523077,3582.29207 272.523077,3580.56989 C272.523077,3578.84771 273.914438,3577.45161 275.630769,3577.45161 Z M297.384615,3577.45161 C299.100946,3577.45161 300.492308,3578.84771 300.492308,3580.56989 C300.492308,3582.29207 299.100946,3583.68817 297.384615,3583.68817 C295.668284,3583.68817 294.276923,3582.29207 294.276923,3580.56989 C294.276923,3578.84771 295.668284,3577.45161 297.384615,3577.45161 Z M319.138462,3577.45161 C320.854793,3577.45161 322.246154,3578.84771 322.246154,3580.56989 C322.246154,3582.29207 320.854793,3583.68817 319.138462,3583.68817 C317.42213,3583.68817 316.030769,3582.29207 316.030769,3580.56989 C316.030769,3578.84771 317.42213,3577.45161 319.138462,3577.45161 Z M340.892308,3577.45161 C342.608639,3577.45161 344,3578.84771 344,3580.56989 C344,3582.29207 342.608639,3583.68817 340.892308,3583.68817 C339.175977,3583.68817 337.784615,3582.29207 337.784615,3580.56989 C337.784615,3578.84771 339.175977,3577.45161 340.892308,3577.45161 Z M145.107692,3577.45161 C146.824023,3577.45161 148.215385,3578.84771 148.215385,3580.56989 C148.215385,3582.29207 146.824023,3583.68817 145.107692,3583.68817 C143.391361,3583.68817 142,3582.29207 142,3580.56989 C142,3578.84771 143.391361,3577.45161 145.107692,3577.45161 Z M232.123077,3555.62366 C233.839408,3555.62366 235.230769,3557.01976 235.230769,3558.74194 C235.230769,3560.46411 233.839408,3561.86022 232.123077,3561.86022 C230.406746,3561.86022 229.015385,3560.46411 229.015385,3558.74194 C229.015385,3557.01976 230.406746,3555.62366 232.123077,3555.62366 Z M319.138462,3555.62366 C320.854793,3555.62366 322.246154,3557.01976 322.246154,3558.74194 C322.246154,3560.46411 320.854793,3561.86022 319.138462,3561.86022 C317.42213,3561.86022 316.030769,3560.46411 316.030769,3558.74194 C316.030769,3557.01976 317.42213,3555.62366 319.138462,3555.62366 Z M297.384615,3555.62366 C299.100946,3555.62366 300.492308,3557.01976 300.492308,3558.74194 C300.492308,3560.46411 299.100946,3561.86022 297.384615,3561.86022 C295.668284,3561.86022 294.276923,3560.46411 294.276923,3558.74194 C294.276923,3557.01976 295.668284,3555.62366 297.384615,3555.62366 Z M275.630769,3555.62366 C277.3471,3555.62366 278.738462,3557.01976 278.738462,3558.74194 C278.738462,3560.46411 277.3471,3561.86022 275.630769,3561.86022 C273.914438,3561.86022 272.523077,3560.46411 272.523077,3558.74194 C272.523077,3557.01976 273.914438,3555.62366 275.630769,3555.62366 Z M253.876923,3555.62366 C255.593254,3555.62366 256.984615,3557.01976 256.984615,3558.74194 C256.984615,3560.46411 255.593254,3561.86022 253.876923,3561.86022 C252.160592,3561.86022 250.769231,3560.46411 250.769231,3558.74194 C250.769231,3557.01976 252.160592,3555.62366 253.876923,3555.62366 Z M210.369231,3555.62366 C212.085562,3555.62366 213.476923,3557.01976 213.476923,3558.74194 C213.476923,3560.46411 212.085562,3561.86022 210.369231,3561.86022 C208.6529,3561.86022 207.261538,3560.46411 207.261538,3558.74194 C207.261538,3557.01976 208.6529,3555.62366 210.369231,3555.62366 Z M188.615385,3555.62366 C190.331716,3555.62366 191.723077,3557.01976 191.723077,3558.74194 C191.723077,3560.46411 190.331716,3561.86022 188.615385,3561.86022 C186.899054,3561.86022 185.507692,3560.46411 185.507692,3558.74194 C185.507692,3557.01976 186.899054,3555.62366 188.615385,3555.62366 Z M166.861538,3555.62366 C168.57787,3555.62366 169.969231,3557.01976 169.969231,3558.74194 C169.969231,3560.46411 168.57787,3561.86022 166.861538,3561.86022 C165.145207,3561.86022 163.753846,3560.46411 163.753846,3558.74194 C163.753846,3557.01976 165.145207,3555.62366 166.861538,3555.62366 Z M145.107692,3555.62366 C146.824023,3555.62366 148.215385,3557.01976 148.215385,3558.74194 C148.215385,3560.46411 146.824023,3561.86022 145.107692,3561.86022 C143.391361,3561.86022 142,3560.46411 142,3558.74194 C142,3557.01976 143.391361,3555.62366 145.107692,3555.62366 Z M340.892308,3555.62366 C342.608639,3555.62366 344,3557.01976 344,3558.74194 C344,3560.46411 342.608639,3561.86022 340.892308,3561.86022 C339.175977,3561.86022 337.784615,3560.46411 337.784615,3558.74194 C337.784615,3557.01976 339.175977,3555.62366 340.892308,3555.62366 Z M319.138462,3533.7957 C320.854793,3533.7957 322.246154,3535.1918 322.246154,3536.91398 C322.246154,3538.63616 320.854793,3540.03226 319.138462,3540.03226 C317.42213,3540.03226 316.030769,3538.63616 316.030769,3536.91398 C316.030769,3535.1918 317.42213,3533.7957 319.138462,3533.7957 Z M297.384615,3533.7957 C299.100946,3533.7957 300.492308,3535.1918 300.492308,3536.91398 C300.492308,3538.63616 299.100946,3540.03226 297.384615,3540.03226 C295.668284,3540.03226 294.276923,3538.63616 294.276923,3536.91398 C294.276923,3535.1918 295.668284,3533.7957 297.384615,3533.7957 Z M275.630769,3533.7957 C277.3471,3533.7957 278.738462,3535.1918 278.738462,3536.91398 C278.738462,3538.63616 277.3471,3540.03226 275.630769,3540.03226 C273.914438,3540.03226 272.523077,3538.63616 272.523077,3536.91398 C272.523077,3535.1918 273.914438,3533.7957 275.630769,3533.7957 Z M253.876923,3533.7957 C255.593254,3533.7957 256.984615,3535.1918 256.984615,3536.91398 C256.984615,3538.63616 255.593254,3540.03226 253.876923,3540.03226 C252.160592,3540.03226 250.769231,3538.63616 250.769231,3536.91398 C250.769231,3535.1918 252.160592,3533.7957 253.876923,3533.7957 Z M188.615385,3533.7957 C190.331716,3533.7957 191.723077,3535.1918 191.723077,3536.91398 C191.723077,3538.63616 190.331716,3540.03226 188.615385,3540.03226 C186.899054,3540.03226 185.507692,3538.63616 185.507692,3536.91398 C185.507692,3535.1918 186.899054,3533.7957 188.615385,3533.7957 Z M166.861538,3533.7957 C168.57787,3533.7957 169.969231,3535.1918 169.969231,3536.91398 C169.969231,3538.63616 168.57787,3540.03226 166.861538,3540.03226 C165.145207,3540.03226 163.753846,3538.63616 163.753846,3536.91398 C163.753846,3535.1918 165.145207,3533.7957 166.861538,3533.7957 Z M145.107692,3533.7957 C146.824023,3533.7957 148.215385,3535.1918 148.215385,3536.91398 C148.215385,3538.63616 146.824023,3540.03226 145.107692,3540.03226 C143.391361,3540.03226 142,3538.63616 142,3536.91398 C142,3535.1918 143.391361,3533.7957 145.107692,3533.7957 Z M340.892308,3533.7957 C342.608639,3533.7957 344,3535.1918 344,3536.91398 C344,3538.63616 342.608639,3540.03226 340.892308,3540.03226 C339.175977,3540.03226 337.784615,3538.63616 337.784615,3536.91398 C337.784615,3535.1918 339.175977,3533.7957 340.892308,3533.7957 Z M210.369231,3533.7957 C212.085562,3533.7957 213.476923,3535.1918 213.476923,3536.91398 C213.476923,3538.63616 212.085562,3540.03226 210.369231,3540.03226 C208.6529,3540.03226 207.261538,3538.63616 207.261538,3536.91398 C207.261538,3535.1918 208.6529,3533.7957 210.369231,3533.7957 Z M232.123077,3533.7957 C233.839408,3533.7957 235.230769,3535.1918 235.230769,3536.91398 C235.230769,3538.63616 233.839408,3540.03226 232.123077,3540.03226 C230.406746,3540.03226 229.015385,3538.63616 229.015385,3536.91398 C229.015385,3535.1918 230.406746,3533.7957 232.123077,3533.7957 Z M340.892308,3511.96774 C342.608639,3511.96774 344,3513.36384 344,3515.08602 C344,3516.8082 342.608639,3518.2043 340.892308,3518.2043 C339.175977,3518.2043 337.784615,3516.8082 337.784615,3515.08602 C337.784615,3513.36384 339.175977,3511.96774 340.892308,3511.96774 Z M319.138462,3511.96774 C320.854793,3511.96774 322.246154,3513.36384 322.246154,3515.08602 C322.246154,3516.8082 320.854793,3518.2043 319.138462,3518.2043 C317.42213,3518.2043 316.030769,3516.8082 316.030769,3515.08602 C316.030769,3513.36384 317.42213,3511.96774 319.138462,3511.96774 Z M297.384615,3511.96774 C299.100946,3511.96774 300.492308,3513.36384 300.492308,3515.08602 C300.492308,3516.8082 299.100946,3518.2043 297.384615,3518.2043 C295.668284,3518.2043 294.276923,3516.8082 294.276923,3515.08602 C294.276923,3513.36384 295.668284,3511.96774 297.384615,3511.96774 Z M275.630769,3511.96774 C277.3471,3511.96774 278.738462,3513.36384 278.738462,3515.08602 C278.738462,3516.8082 277.3471,3518.2043 275.630769,3518.2043 C273.914438,3518.2043 272.523077,3516.8082 272.523077,3515.08602 C272.523077,3513.36384 273.914438,3511.96774 275.630769,3511.96774 Z M253.876923,3511.96774 C255.593254,3511.96774 256.984615,3513.36384 256.984615,3515.08602 C256.984615,3516.8082 255.593254,3518.2043 253.876923,3518.2043 C252.160592,3518.2043 250.769231,3516.8082 250.769231,3515.08602 C250.769231,3513.36384 252.160592,3511.96774 253.876923,3511.96774 Z M232.123077,3511.96774 C233.839408,3511.96774 235.230769,3513.36384 235.230769,3515.08602 C235.230769,3516.8082 233.839408,3518.2043 232.123077,3518.2043 C230.406746,3518.2043 229.015385,3516.8082 229.015385,3515.08602 C229.015385,3513.36384 230.406746,3511.96774 232.123077,3511.96774 Z M210.369231,3511.96774 C212.085562,3511.96774 213.476923,3513.36384 213.476923,3515.08602 C213.476923,3516.8082 212.085562,3518.2043 210.369231,3518.2043 C208.6529,3518.2043 207.261538,3516.8082 207.261538,3515.08602 C207.261538,3513.36384 208.6529,3511.96774 210.369231,3511.96774 Z M188.615385,3511.96774 C190.331716,3511.96774 191.723077,3513.36384 191.723077,3515.08602 C191.723077,3516.8082 190.331716,3518.2043 188.615385,3518.2043 C186.899054,3518.2043 185.507692,3516.8082 185.507692,3515.08602 C185.507692,3513.36384 186.899054,3511.96774 188.615385,3511.96774 Z M166.861538,3511.96774 C168.57787,3511.96774 169.969231,3513.36384 169.969231,3515.08602 C169.969231,3516.8082 168.57787,3518.2043 166.861538,3518.2043 C165.145207,3518.2043 163.753846,3516.8082 163.753846,3515.08602 C163.753846,3513.36384 165.145207,3511.96774 166.861538,3511.96774 Z M145.107692,3511.96774 C146.824023,3511.96774 148.215385,3513.36384 148.215385,3515.08602 C148.215385,3516.8082 146.824023,3518.2043 145.107692,3518.2043 C143.391361,3518.2043 142,3516.8082 142,3515.08602 C142,3513.36384 143.391361,3511.96774 145.107692,3511.96774 Z M319.138462,3490.13978 C320.854793,3490.13978 322.246154,3491.53589 322.246154,3493.25806 C322.246154,3494.98024 320.854793,3496.37634 319.138462,3496.37634 C317.42213,3496.37634 316.030769,3494.98024 316.030769,3493.25806 C316.030769,3491.53589 317.42213,3490.13978 319.138462,3490.13978 Z M210.369231,3490.13978 C212.085562,3490.13978 213.476923,3491.53589 213.476923,3493.25806 C213.476923,3494.98024 212.085562,3496.37634 210.369231,3496.37634 C208.6529,3496.37634 207.261538,3494.98024 207.261538,3493.25806 C207.261538,3491.53589 208.6529,3490.13978 210.369231,3490.13978 Z M297.384615,3490.13978 C299.100946,3490.13978 300.492308,3491.53589 300.492308,3493.25806 C300.492308,3494.98024 299.100946,3496.37634 297.384615,3496.37634 C295.668284,3496.37634 294.276923,3494.98024 294.276923,3493.25806 C294.276923,3491.53589 295.668284,3490.13978 297.384615,3490.13978 Z M275.630769,3490.13978 C277.3471,3490.13978 278.738462,3491.53589 278.738462,3493.25806 C278.738462,3494.98024 277.3471,3496.37634 275.630769,3496.37634 C273.914438,3496.37634 272.523077,3494.98024 272.523077,3493.25806 C272.523077,3491.53589 273.914438,3490.13978 275.630769,3490.13978 Z M253.876923,3490.13978 C255.593254,3490.13978 256.984615,3491.53589 256.984615,3493.25806 C256.984615,3494.98024 255.593254,3496.37634 253.876923,3496.37634 C252.160592,3496.37634 250.769231,3494.98024 250.769231,3493.25806 C250.769231,3491.53589 252.160592,3490.13978 253.876923,3490.13978 Z M232.123077,3490.13978 C233.839408,3490.13978 235.230769,3491.53589 235.230769,3493.25806 C235.230769,3494.98024 233.839408,3496.37634 232.123077,3496.37634 C230.406746,3496.37634 229.015385,3494.98024 229.015385,3493.25806 C229.015385,3491.53589 230.406746,3490.13978 232.123077,3490.13978 Z M188.615385,3490.13978 C190.331716,3490.13978 191.723077,3491.53589 191.723077,3493.25806 C191.723077,3494.98024 190.331716,3496.37634 188.615385,3496.37634 C186.899054,3496.37634 185.507692,3494.98024 185.507692,3493.25806 C185.507692,3491.53589 186.899054,3490.13978 188.615385,3490.13978 Z M166.861538,3490.13978 C168.57787,3490.13978 169.969231,3491.53589 169.969231,3493.25806 C169.969231,3494.98024 168.57787,3496.37634 166.861538,3496.37634 C165.145207,3496.37634 163.753846,3494.98024 163.753846,3493.25806 C163.753846,3491.53589 165.145207,3490.13978 166.861538,3490.13978 Z M145.107692,3490.13978 C146.824023,3490.13978 148.215385,3491.53589 148.215385,3493.25806 C148.215385,3494.98024 146.824023,3496.37634 145.107692,3496.37634 C143.391361,3496.37634 142,3494.98024 142,3493.25806 C142,3491.53589 143.391361,3490.13978 145.107692,3490.13978 Z M340.892308,3490.13978 C342.608639,3490.13978 344,3491.53589 344,3493.25806 C344,3494.98024 342.608639,3496.37634 340.892308,3496.37634 C339.175977,3496.37634 337.784615,3494.98024 337.784615,3493.25806 C337.784615,3491.53589 339.175977,3490.13978 340.892308,3490.13978 Z M297.384615,3468.31183 C299.100946,3468.31183 300.492308,3469.70793 300.492308,3471.43011 C300.492308,3473.15229 299.100946,3474.54839 297.384615,3474.54839 C295.668284,3474.54839 294.276923,3473.15229 294.276923,3471.43011 C294.276923,3469.70793 295.668284,3468.31183 297.384615,3468.31183 Z M275.630769,3468.31183 C277.3471,3468.31183 278.738462,3469.70793 278.738462,3471.43011 C278.738462,3473.15229 277.3471,3474.54839 275.630769,3474.54839 C273.914438,3474.54839 272.523077,3473.15229 272.523077,3471.43011 C272.523077,3469.70793 273.914438,3468.31183 275.630769,3468.31183 Z M253.876923,3468.31183 C255.593254,3468.31183 256.984615,3469.70793 256.984615,3471.43011 C256.984615,3473.15229 255.593254,3474.54839 253.876923,3474.54839 C252.160592,3474.54839 250.769231,3473.15229 250.769231,3471.43011 C250.769231,3469.70793 252.160592,3468.31183 253.876923,3468.31183 Z M232.123077,3468.31183 C233.839408,3468.31183 235.230769,3469.70793 235.230769,3471.43011 C235.230769,3473.15229 233.839408,3474.54839 232.123077,3474.54839 C230.406746,3474.54839 229.015385,3473.15229 229.015385,3471.43011 C229.015385,3469.70793 230.406746,3468.31183 232.123077,3468.31183 Z M188.615385,3468.31183 C190.331716,3468.31183 191.723077,3469.70793 191.723077,3471.43011 C191.723077,3473.15229 190.331716,3474.54839 188.615385,3474.54839 C186.899054,3474.54839 185.507692,3473.15229 185.507692,3471.43011 C185.507692,3469.70793 186.899054,3468.31183 188.615385,3468.31183 Z M210.369231,3468.31183 C212.085562,3468.31183 213.476923,3469.70793 213.476923,3471.43011 C213.476923,3473.15229 212.085562,3474.54839 210.369231,3474.54839 C208.6529,3474.54839 207.261538,3473.15229 207.261538,3471.43011 C207.261538,3469.70793 208.6529,3468.31183 210.369231,3468.31183 Z M166.861538,3468.31183 C168.57787,3468.31183 169.969231,3469.70793 169.969231,3471.43011 C169.969231,3473.15229 168.57787,3474.54839 166.861538,3474.54839 C165.145207,3474.54839 163.753846,3473.15229 163.753846,3471.43011 C163.753846,3469.70793 165.145207,3468.31183 166.861538,3468.31183 Z M145.107692,3468.31183 C146.824023,3468.31183 148.215385,3469.70793 148.215385,3471.43011 C148.215385,3473.15229 146.824023,3474.54839 145.107692,3474.54839 C143.391361,3474.54839 142,3473.15229 142,3471.43011 C142,3469.70793 143.391361,3468.31183 145.107692,3468.31183 Z M340.892308,3468.31183 C342.608639,3468.31183 344,3469.70793 344,3471.43011 C344,3473.15229 342.608639,3474.54839 340.892308,3474.54839 C339.175977,3474.54839 337.784615,3473.15229 337.784615,3471.43011 C337.784615,3469.70793 339.175977,3468.31183 340.892308,3468.31183 Z M319.138462,3468.31183 C320.854793,3468.31183 322.246154,3469.70793 322.246154,3471.43011 C322.246154,3473.15229 320.854793,3474.54839 319.138462,3474.54839 C317.42213,3474.54839 316.030769,3473.15229 316.030769,3471.43011 C316.030769,3469.70793 317.42213,3468.31183 319.138462,3468.31183 Z M275.630769,3446.48387 C277.3471,3446.48387 278.738462,3447.87997 278.738462,3449.60215 C278.738462,3451.32433 277.3471,3452.72043 275.630769,3452.72043 C273.914438,3452.72043 272.523077,3451.32433 272.523077,3449.60215 C272.523077,3447.87997 273.914438,3446.48387 275.630769,3446.48387 Z M253.876923,3446.48387 C255.593254,3446.48387 256.984615,3447.87997 256.984615,3449.60215 C256.984615,3451.32433 255.593254,3452.72043 253.876923,3452.72043 C252.160592,3452.72043 250.769231,3451.32433 250.769231,3449.60215 C250.769231,3447.87997 252.160592,3446.48387 253.876923,3446.48387 Z M232.123077,3446.48387 C233.839408,3446.48387 235.230769,3447.87997 235.230769,3449.60215 C235.230769,3451.32433 233.839408,3452.72043 232.123077,3452.72043 C230.406746,3452.72043 229.015385,3451.32433 229.015385,3449.60215 C229.015385,3447.87997 230.406746,3446.48387 232.123077,3446.48387 Z M188.615385,3446.48387 C190.331716,3446.48387 191.723077,3447.87997 191.723077,3449.60215 C191.723077,3451.32433 190.331716,3452.72043 188.615385,3452.72043 C186.899054,3452.72043 185.507692,3451.32433 185.507692,3449.60215 C185.507692,3447.87997 186.899054,3446.48387 188.615385,3446.48387 Z M210.369231,3446.48387 C212.085562,3446.48387 213.476923,3447.87997 213.476923,3449.60215 C213.476923,3451.32433 212.085562,3452.72043 210.369231,3452.72043 C208.6529,3452.72043 207.261538,3451.32433 207.261538,3449.60215 C207.261538,3447.87997 208.6529,3446.48387 210.369231,3446.48387 Z M166.861538,3446.48387 C168.57787,3446.48387 169.969231,3447.87997 169.969231,3449.60215 C169.969231,3451.32433 168.57787,3452.72043 166.861538,3452.72043 C165.145207,3452.72043 163.753846,3451.32433 163.753846,3449.60215 C163.753846,3447.87997 165.145207,3446.48387 166.861538,3446.48387 Z M145.107692,3446.48387 C146.824023,3446.48387 148.215385,3447.87997 148.215385,3449.60215 C148.215385,3451.32433 146.824023,3452.72043 145.107692,3452.72043 C143.391361,3452.72043 142,3451.32433 142,3449.60215 C142,3447.87997 143.391361,3446.48387 145.107692,3446.48387 Z M340.892308,3446.48387 C342.608639,3446.48387 344,3447.87997 344,3449.60215 C344,3451.32433 342.608639,3452.72043 340.892308,3452.72043 C339.175977,3452.72043 337.784615,3451.32433 337.784615,3449.60215 C337.784615,3447.87997 339.175977,3446.48387 340.892308,3446.48387 Z M319.138462,3446.48387 C320.854793,3446.48387 322.246154,3447.87997 322.246154,3449.60215 C322.246154,3451.32433 320.854793,3452.72043 319.138462,3452.72043 C317.42213,3452.72043 316.030769,3451.32433 316.030769,3449.60215 C316.030769,3447.87997 317.42213,3446.48387 319.138462,3446.48387 Z M297.384615,3446.48387 C299.100946,3446.48387 300.492308,3447.87997 300.492308,3449.60215 C300.492308,3451.32433 299.100946,3452.72043 297.384615,3452.72043 C295.668284,3452.72043 294.276923,3451.32433 294.276923,3449.60215 C294.276923,3447.87997 295.668284,3446.48387 297.384615,3446.48387 Z M275.630769,3424.65591 C277.3471,3424.65591 278.738462,3426.05202 278.738462,3427.77419 C278.738462,3429.49637 277.3471,3430.89247 275.630769,3430.89247 C273.914438,3430.89247 272.523077,3429.49637 272.523077,3427.77419 C272.523077,3426.05202 273.914438,3424.65591 275.630769,3424.65591 Z M166.861538,3424.65591 C168.57787,3424.65591 169.969231,3426.05202 169.969231,3427.77419 C169.969231,3429.49637 168.57787,3430.89247 166.861538,3430.89247 C165.145207,3430.89247 163.753846,3429.49637 163.753846,3427.77419 C163.753846,3426.05202 165.145207,3424.65591 166.861538,3424.65591 Z M188.615385,3424.65591 C190.331716,3424.65591 191.723077,3426.05202 191.723077,3427.77419 C191.723077,3429.49637 190.331716,3430.89247 188.615385,3430.89247 C186.899054,3430.89247 185.507692,3429.49637 185.507692,3427.77419 C185.507692,3426.05202 186.899054,3424.65591 188.615385,3424.65591 Z M210.369231,3424.65591 C212.085562,3424.65591 213.476923,3426.05202 213.476923,3427.77419 C213.476923,3429.49637 212.085562,3430.89247 210.369231,3430.89247 C208.6529,3430.89247 207.261538,3429.49637 207.261538,3427.77419 C207.261538,3426.05202 208.6529,3424.65591 210.369231,3424.65591 Z M253.876923,3424.65591 C255.593254,3424.65591 256.984615,3426.05202 256.984615,3427.77419 C256.984615,3429.49637 255.593254,3430.89247 253.876923,3430.89247 C252.160592,3430.89247 250.769231,3429.49637 250.769231,3427.77419 C250.769231,3426.05202 252.160592,3424.65591 253.876923,3424.65591 Z M145.107692,3424.65591 C146.824023,3424.65591 148.215385,3426.05202 148.215385,3427.77419 C148.215385,3429.49637 146.824023,3430.89247 145.107692,3430.89247 C143.391361,3430.89247 142,3429.49637 142,3427.77419 C142,3426.05202 143.391361,3424.65591 145.107692,3424.65591 Z M297.384615,3424.65591 C299.100946,3424.65591 300.492308,3426.05202 300.492308,3427.77419 C300.492308,3429.49637 299.100946,3430.89247 297.384615,3430.89247 C295.668284,3430.89247 294.276923,3429.49637 294.276923,3427.77419 C294.276923,3426.05202 295.668284,3424.65591 297.384615,3424.65591 Z M319.138462,3424.65591 C320.854793,3424.65591 322.246154,3426.05202 322.246154,3427.77419 C322.246154,3429.49637 320.854793,3430.89247 319.138462,3430.89247 C317.42213,3430.89247 316.030769,3429.49637 316.030769,3427.77419 C316.030769,3426.05202 317.42213,3424.65591 319.138462,3424.65591 Z M232.123077,3424.65591 C233.839408,3424.65591 235.230769,3426.05202 235.230769,3427.77419 C235.230769,3429.49637 233.839408,3430.89247 232.123077,3430.89247 C230.406746,3430.89247 229.015385,3429.49637 229.015385,3427.77419 C229.015385,3426.05202 230.406746,3424.65591 232.123077,3424.65591 Z M340.892308,3424.65591 C342.608639,3424.65591 344,3426.05202 344,3427.77419 C344,3429.49637 342.608639,3430.89247 340.892308,3430.89247 C339.175977,3430.89247 337.784615,3429.49637 337.784615,3427.77419 C337.784615,3426.05202 339.175977,3424.65591 340.892308,3424.65591 Z M340.892308,3402.82796 C342.608639,3402.82796 344,3404.22406 344,3405.94624 C344,3407.66841 342.608639,3409.06452 340.892308,3409.06452 C339.175977,3409.06452 337.784615,3407.66841 337.784615,3405.94624 C337.784615,3404.22406 339.175977,3402.82796 340.892308,3402.82796 Z M253.876923,3402.82796 C255.593254,3402.82796 256.984615,3404.22406 256.984615,3405.94624 C256.984615,3407.66841 255.593254,3409.06452 253.876923,3409.06452 C252.160592,3409.06452 250.769231,3407.66841 250.769231,3405.94624 C250.769231,3404.22406 252.160592,3402.82796 253.876923,3402.82796 Z M166.861538,3402.82796 C168.57787,3402.82796 169.969231,3404.22406 169.969231,3405.94624 C169.969231,3407.66841 168.57787,3409.06452 166.861538,3409.06452 C165.145207,3409.06452 163.753846,3407.66841 163.753846,3405.94624 C163.753846,3404.22406 165.145207,3402.82796 166.861538,3402.82796 Z M232.123077,3402.82796 C233.839408,3402.82796 235.230769,3404.22406 235.230769,3405.94624 C235.230769,3407.66841 233.839408,3409.06452 232.123077,3409.06452 C230.406746,3409.06452 229.015385,3407.66841 229.015385,3405.94624 C229.015385,3404.22406 230.406746,3402.82796 232.123077,3402.82796 Z M145.107692,3402.82796 C146.824023,3402.82796 148.215385,3404.22406 148.215385,3405.94624 C148.215385,3407.66841 146.824023,3409.06452 145.107692,3409.06452 C143.391361,3409.06452 142,3407.66841 142,3405.94624 C142,3404.22406 143.391361,3402.82796 145.107692,3402.82796 Z M319.138462,3402.82796 C320.854793,3402.82796 322.246154,3404.22406 322.246154,3405.94624 C322.246154,3407.66841 320.854793,3409.06452 319.138462,3409.06452 C317.42213,3409.06452 316.030769,3407.66841 316.030769,3405.94624 C316.030769,3404.22406 317.42213,3402.82796 319.138462,3402.82796 Z M210.369231,3402.82796 C212.085562,3402.82796 213.476923,3404.22406 213.476923,3405.94624 C213.476923,3407.66841 212.085562,3409.06452 210.369231,3409.06452 C208.6529,3409.06452 207.261538,3407.66841 207.261538,3405.94624 C207.261538,3404.22406 208.6529,3402.82796 210.369231,3402.82796 Z M188.615385,3402.82796 C190.331716,3402.82796 191.723077,3404.22406 191.723077,3405.94624 C191.723077,3407.66841 190.331716,3409.06452 188.615385,3409.06452 C186.899054,3409.06452 185.507692,3407.66841 185.507692,3405.94624 C185.507692,3404.22406 186.899054,3402.82796 188.615385,3402.82796 Z M297.384615,3402.82796 C299.100946,3402.82796 300.492308,3404.22406 300.492308,3405.94624 C300.492308,3407.66841 299.100946,3409.06452 297.384615,3409.06452 C295.668284,3409.06452 294.276923,3407.66841 294.276923,3405.94624 C294.276923,3404.22406 295.668284,3402.82796 297.384615,3402.82796 Z M275.630769,3402.82796 C277.3471,3402.82796 278.738462,3404.22406 278.738462,3405.94624 C278.738462,3407.66841 277.3471,3409.06452 275.630769,3409.06452 C273.914438,3409.06452 272.523077,3407.66841 272.523077,3405.94624 C272.523077,3404.22406 273.914438,3402.82796 275.630769,3402.82796 Z M319.138462,3381 C320.854793,3381 322.246154,3382.3961 322.246154,3384.11828 C322.246154,3385.84046 320.854793,3387.23656 319.138462,3387.23656 C317.42213,3387.23656 316.030769,3385.84046 316.030769,3384.11828 C316.030769,3382.3961 317.42213,3381 319.138462,3381 Z M340.892308,3381 C342.608639,3381 344,3382.3961 344,3384.11828 C344,3385.84046 342.608639,3387.23656 340.892308,3387.23656 C339.175977,3387.23656 337.784615,3385.84046 337.784615,3384.11828 C337.784615,3382.3961 339.175977,3381 340.892308,3381 Z M145.107692,3381 C146.824023,3381 148.215385,3382.3961 148.215385,3384.11828 C148.215385,3385.84046 146.824023,3387.23656 145.107692,3387.23656 C143.391361,3387.23656 142,3385.84046 142,3384.11828 C142,3382.3961 143.391361,3381 145.107692,3381 Z M166.861538,3381 C168.57787,3381 169.969231,3382.3961 169.969231,3384.11828 C169.969231,3385.84046 168.57787,3387.23656 166.861538,3387.23656 C165.145207,3387.23656 163.753846,3385.84046 163.753846,3384.11828 C163.753846,3382.3961 165.145207,3381 166.861538,3381 Z M188.615385,3381 C190.331716,3381 191.723077,3382.3961 191.723077,3384.11828 C191.723077,3385.84046 190.331716,3387.23656 188.615385,3387.23656 C186.899054,3387.23656 185.507692,3385.84046 185.507692,3384.11828 C185.507692,3382.3961 186.899054,3381 188.615385,3381 Z M210.369231,3381 C212.085562,3381 213.476923,3382.3961 213.476923,3384.11828 C213.476923,3385.84046 212.085562,3387.23656 210.369231,3387.23656 C208.6529,3387.23656 207.261538,3385.84046 207.261538,3384.11828 C207.261538,3382.3961 208.6529,3381 210.369231,3381 Z M232.123077,3381 C233.839408,3381 235.230769,3382.3961 235.230769,3384.11828 C235.230769,3385.84046 233.839408,3387.23656 232.123077,3387.23656 C230.406746,3387.23656 229.015385,3385.84046 229.015385,3384.11828 C229.015385,3382.3961 230.406746,3381 232.123077,3381 Z M253.876923,3381 C255.593254,3381 256.984615,3382.3961 256.984615,3384.11828 C256.984615,3385.84046 255.593254,3387.23656 253.876923,3387.23656 C252.160592,3387.23656 250.769231,3385.84046 250.769231,3384.11828 C250.769231,3382.3961 252.160592,3381 253.876923,3381 Z M275.630769,3381 C277.3471,3381 278.738462,3382.3961 278.738462,3384.11828 C278.738462,3385.84046 277.3471,3387.23656 275.630769,3387.23656 C273.914438,3387.23656 272.523077,3385.84046 272.523077,3384.11828 C272.523077,3382.3961 273.914438,3381 275.630769,3381 Z M297.384615,3381 C299.100946,3381 300.492308,3382.3961 300.492308,3384.11828 C300.492308,3385.84046 299.100946,3387.23656 297.384615,3387.23656 C295.668284,3387.23656 294.276923,3385.84046 294.276923,3384.11828 C294.276923,3382.3961 295.668284,3381 297.384615,3381 Z" id="形状结合备份-14" transform="translate(243.000000, 3526.000000) rotate(-270.000000) translate(-243.000000, -3526.000000) "></path>
        </g>
    </g>
</svg>